<?xml version="1.0" encoding="utf-8"?>
<!-- Generator: Adobe Illustrator 16.0.0, SVG Export Plug-In . SVG Version: 6.00 Build 0)  -->
<!DOCTYPE svg PUBLIC "-//W3C//DTD SVG 1.1//EN" "http://www.w3.org/Graphics/SVG/1.1/DTD/svg11.dtd">
<svg version="1.1" xmlns="http://www.w3.org/2000/svg" xmlns:xlink="http://www.w3.org/1999/xlink" x="0px" y="0px" width="1920px"
	 height="1080px" viewBox="0 0 1920 1080" enable-background="new 0 0 1920 1080" xml:space="preserve">
<g id="BACKGROUND">
	<g>
		<defs>
			<rect id="SVGID_1_" width="1920" height="1080"/>
		</defs>
		<clipPath id="SVGID_2_">
			<use xlink:href="#SVGID_1_"  overflow="visible"/>
		</clipPath>
		<rect clip-path="url(#SVGID_2_)" fill="#C6E1EF" width="1920" height="1080"/>
		<path clip-path="url(#SVGID_2_)" fill="#D7ECF7" d="M1258.79,730.719c-58.152,15.301-104.169,60.927-157.188,90.526
			c-146.419,81.743-219.571-60.563-262.834-176.953c-20.958-56.383-54.146-115.643-111.559-133.594
			c-66.817-20.892-134.644,22.118-195.715,56.341c-79.346,44.464-165.491,76.698-254.457,95.566
			c-87.512,18.561-176.853,11.226-257.525,55.175c-84.507,46.037-149.223,143.473-125.709,236.787
			c12.036,47.764,45.238,88.032,84.486,117.801c57.131,43.332,128.148,61.897,181.263,109.287
			c55.942,49.912,92.189,120.953,113.105,192.04c33.033,112.267,37.332,232.066,77.102,342.127
			c39.77,110.061,130.759,215.205,247.747,218.261c131.428,3.433,185.954-94.521,277.279-164.604
			c94.891-72.818,214.202-114.438,334.075-112.719c74.809,1.072,151.483,17.672,223.255-3.451
			c112.234-33.032,180.99-152.784,190.981-269.349c11.823-137.942-35.024-305.994-84.224-433.742
			c-22.813-59.233-51.53-117.852-97.111-162.027c-45.581-44.175-110.796-72.038-173.071-59.751
			C1265.35,729.099,1262.051,729.861,1258.79,730.719z"/>
		<path clip-path="url(#SVGID_2_)" fill="#AED9EB" d="M956.622,219.911c-75.898,15.875-155.401-4.8-233.678-5.845
			c-216.171-2.885-217.927,177.278-200.269,315.787c8.554,67.098,4.682,143.578-51.074,192.03
			c-64.889,56.389-168.01,49.952-258.25,48.621c-117.241-1.729-235.225,12.301-348.706,41.088
			c-111.626,28.316-210.337,83.287-328.81,82.777c-124.103-0.533-255.213-62.599-282.246-167.682
			c-13.837-53.788,1.068-111.443,29.034-161.916c40.708-73.468,111.786-129.792,145.511-205.141
			c35.52-79.359,36.083-169.154,18.952-250.81c-27.057-128.958-91.599-250.045-109.611-380.413
			c-18.012-130.368,25.858-283.205,158.917-348.693c149.481-73.571,269.148-5.551,415.059,15.186
			c151.606,21.546,313.259-0.883,450.418-66.585c85.596-41.002,164.335-98.398,259.308-115.77
			c148.514-27.166,297.226,54.872,376.361,165.122c93.648,130.47,137.145,322.119,154.55,475.06
			c8.07,70.914,8.979,144.371-17.928,212.51c-26.907,68.138-85.905,130.584-164.807,151.648
			C965.122,218.016,960.878,219.021,956.622,219.911z"/>
		<path clip-path="url(#SVGID_2_)" fill="#AED9EB" d="M2111.526,1505.432c-65.336,29.451-140.933,27.892-211.658,43.133
			c-195.316,42.092-162.329,198.978-119.844,315.669c20.581,56.529,31.768,123.772-9.17,177.37
			c-47.644,62.377-141.788,78.06-223.346,95.521c-105.963,22.687-209.57,59.216-306.29,107.639
			c-95.138,47.631-173.526,115.753-280.364,139.753c-111.916,25.14-241.95-1.731-286.473-87.458
			c-32.676-62.925-5.173-139.781,23.235-205.65c66.111-153.287,74.06-292.497,0.886-433.175
			c-78.427-150.776-292.541-402.263-64.566-568.737c91.687-66.953,225.929-79.652,334.794-89.697
			c122.552-11.308,249.193-37.595,356.492-101.795c65.718-39.32,121.105-90.761,183.208-134.57
			c155.926-109.995,349.167-109.2,478.355,1.828c109.408,94.03,185.369,251.558,230.396,380.84
			c20.878,59.944,35.791,123.575,24.623,188.324s-52.342,131.173-119.388,165.751
			C2118.821,1502.032,2115.19,1503.78,2111.526,1505.432z"/>
		<path clip-path="url(#SVGID_2_)" fill="#D7ECF7" d="M1794.975-335.91c-50.304,3.101-100.701,15.946-146.305,36.416
			c-130.55,58.605-335.271,182.156-312.572,351.806C1352.552,175.3,1590.163,340.42,1685.177,404.5
			c83.535,56.338,193.161,83.979,286.604,46.287c110.309-44.496,170.85-169.47,174.924-288.347
			c4.358-127.186-34.306-348.852-137.656-435.292C1949.943-322.286,1872.569-340.692,1794.975-335.91z"/>
		<path clip-path="url(#SVGID_2_)" fill="none" stroke="#FFFFFF" stroke-width="1.5" stroke-miterlimit="10" d="M2096.381,38.425
			c7.219,73.534-12.414,149.411-54.394,210.216c-41.979,60.805-105.974,106.057-177.294,125.369
			c-34.816,9.428-71.425,12.825-107.201,8.238c-61.356-7.866-117.633-38.68-167.05-75.887
			c-65.676-49.448-121.54-110.557-183.072-165.075S1276.112,37.671,1195.923,19.556c-76.145-17.201-155.377-5.222-233.431-4.048
			S799.948,3.99,744.53-50.988"/>
		<path clip-path="url(#SVGID_2_)" fill="none" stroke="#FFFFFF" stroke-width="1.5" stroke-miterlimit="10" d="M2212.367,654.943
			c7.9,99.832-77.265,189.387-174.032,215.185s-200.009,1.027-292.972-36.221c-92.963-37.247-181.214-87.036-277.594-114.245
			c-71.734-20.252-147.103-27.557-221.391-21.459c-66.353,5.446-136.674,24.493-178.705,76.122
			c-42.03,51.629-38.248,142.591,20.958,173.036c23.654,12.164,57.067,10.733,72.122-11.195
			c19.817-28.866-4.145-67.513-29.979-91.148c-77.53-70.934-182.714-110.814-287.786-109.115
			c-112.767,1.824-219.088,48.858-327.913,78.47c-134.5,36.598-279.7,46.363-412.294,3.37S-147.581,673.373-188.08,540"/>
	</g>
</g>
<g id="OBJECTS">
	<g>
		<defs>
			<rect id="SVGID_3_" width="1920" height="1080"/>
		</defs>
		<clipPath id="SVGID_4_">
			<use xlink:href="#SVGID_3_"  overflow="visible"/>
		</clipPath>
		<g display="none" clip-path="url(#SVGID_4_)">
			<path display="inline" fill="#8EC5E4" d="M192.538,690.68C139.842,647.4,98.131,590.851,72.344,527.723
				c-8.401-20.565-15.185-42.042-16.861-64.193c-1.676-22.152,2.037-45.139,13.431-64.209c4.773-7.988,11.346-15.556,20.239-18.297
				c8.608-2.654,18.083-0.319,26.019,3.944c16.672,8.959,27.929,25.812,34.308,43.631c6.379,17.819,8.478,36.829,11.076,55.576
				c9.116,65.775,25.507,131.984,61.43,187.832C212.917,679.424,202.923,685.71,192.538,690.68z"/>
			<path display="inline" fill="#FFFFFF" d="M203.57,667.941c-24.708-37.631-40.887-80.827-46.978-125.431
				c-2.862-20.958-3.507-42.416,0.636-63.158s13.305-40.805,28.14-55.883c5.937-6.034,12.896-11.315,20.961-13.884
				s17.364-2.132,24.426,2.533c6.811,4.5,10.816,12.386,12.285,20.416c1.469,8.029,0.685,16.287-0.323,24.387
				c-4.165,33.471-12.058,66.396-16.177,99.872c-4.12,33.477-4.324,68.179,6.557,100.104
				C222.758,661.129,212.419,665.361,203.57,667.941z"/>
			<path display="inline" fill="none" stroke="#152639" stroke-width="2.2521" stroke-linecap="round" stroke-miterlimit="10" d="
				M212.825,662.416c-27.311-77.216-26.814-163.943,1.38-240.84"/>
			<path display="inline" fill="none" stroke="#152639" stroke-width="2.2521" stroke-linecap="round" stroke-miterlimit="10" d="
				M200.041,680.501c-58.159-80.255-94.888-175.89-105.402-274.443"/>
			<g display="inline">
				<path fill="#AEDDF0" d="M73.862,446.765c0.813,1.423,1.408,2.897,1.928,4.389c0.533,1.489,0.957,3.003,1.32,4.532
					c0.357,1.53,0.651,3.075,0.836,4.646c0.198,1.567,0.318,3.153,0.221,4.79c-0.815-1.422-1.413-2.896-1.932-4.388
					c-0.533-1.489-0.957-3.003-1.317-4.533c-0.354-1.531-0.648-3.076-0.833-4.646C73.888,449.987,73.767,448.401,73.862,446.765z"/>
			</g>
			<g display="inline">
				<path fill="#AEDDF0" d="M63.67,442.432c0.575,1.006,0.996,2.048,1.364,3.103c0.377,1.053,0.676,2.123,0.933,3.204
					c0.253,1.082,0.46,2.174,0.591,3.284c0.14,1.108,0.225,2.229,0.156,3.386c-0.576-1.005-0.999-2.047-1.366-3.102
					c-0.376-1.053-0.677-2.124-0.931-3.205c-0.25-1.082-0.458-2.174-0.588-3.285C63.689,444.709,63.604,443.588,63.67,442.432z"/>
			</g>
			<g display="inline">
				<path fill="#AEDDF0" d="M72.505,427.571c0.626,0.773,1.033,1.589,1.374,2.418c0.332,0.831,0.576,1.679,0.747,2.541
					c0.171,0.862,0.265,1.74,0.272,2.634c-0.001,0.896-0.07,1.806-0.361,2.758c-0.629-0.772-1.037-1.588-1.376-2.417
					c-0.331-0.831-0.576-1.678-0.744-2.542c-0.168-0.863-0.262-1.74-0.269-2.634C72.149,429.432,72.217,428.523,72.505,427.571z"/>
			</g>
		</g>
		<g display="none" clip-path="url(#SVGID_4_)">
			<g display="inline">
				<path fill="#4477B4" d="M486.382,646.552c-11.907-44.688-23.918-90.436-20.249-136.537c0.591-7.421,1.677-15.07,5.608-21.393
					c3.931-6.322,11.396-10.99,18.697-9.531c10.099,2.018,14.72,13.691,16.585,23.819
					C516.227,552.893,500.66,603.747,486.382,646.552z"/>
				<path fill="#4477B4" d="M485.592,647.73c21.282-16.133,36.295-38.924,52.061-60.479s33.532-42.974,57.717-54.301
					c7.237-3.389,16.837-5.399,22.421,0.318c3.5,3.583,4.113,9.25,2.788,14.081s-4.287,9.024-7.243,13.067
					c-16.003,21.888-33.648,42.865-55.016,59.556C536.952,636.663,511.56,648.946,485.592,647.73z"/>
				<path fill="#4477B4" d="M540.119,519.188c-6.162-39.212-12.323-78.424-18.484-117.635c-0.777-4.945-1.193-10.899,2.708-14.036
					c3.25-2.614,8.283-1.836,11.565,0.736c3.283,2.572,5.173,6.504,6.711,10.381c7.596,19.138,9.283,40.213,7.791,60.749
					C548.918,479.919,544.357,500.093,540.119,519.188z"/>
				<path fill="#4477B4" d="M539.898,516.69c16.951-28.771,34.021-57.712,55.754-83.066c3.593-4.191,7.556-8.444,12.801-10.167
					c5.245-1.722,12.063,0.105,14.058,5.252c1.666,4.302-0.465,9.067-2.7,13.103C601.825,474.277,573.722,501.042,539.898,516.69z"
					/>
				<path fill="#4477B4" d="M570.932,390.466c-3.53-32.197-31.555-57.863-34.456-90.123c-0.364-4.048-0.013-8.773,3.266-11.175
					c2.667-1.954,6.514-1.598,9.368,0.072c2.854,1.669,4.9,4.416,6.693,7.194C572.888,322.909,573.235,356.441,570.932,390.466z"/>
				<path fill="#4477B4" d="M571.611,389.339c10.661-24.396,21.322-48.792,31.983-73.188c1.711-3.916,3.481-7.921,6.444-11
					c2.963-3.079,7.417-5.09,11.548-3.999c3.875,1.023,6.699,4.598,7.76,8.463c1.062,3.865,0.62,7.985-0.207,11.906
					c-3.122,14.812-11.545,28.089-21.863,39.164C596.958,371.761,584.743,380.867,571.611,389.339z"/>
				<path fill="none" stroke="#152639" stroke-width="2.7276" stroke-miterlimit="10" d="M473.538,671.571
					c53.871-96.725,88.911-203.891,102.59-313.757"/>
			</g>
			<g display="inline">
				<path fill="none" stroke="#152639" stroke-width="3.3191" stroke-linecap="round" stroke-miterlimit="10" d="M470.177,668.39
					c36.792-40.197,73.717-80.561,104.538-125.501c30.821-44.939,55.539-94.927,65.348-148.529"/>
				<path fill="#152639" d="M470.177,668.39c54.592-44.566,128.275-66.015,177.302-79.252
					C593.813,615.376,515.242,656.764,470.177,668.39z"/>
				<path fill="#152639" d="M468.789,664.43c-8.142-43.997-5.608-89.932,7.325-132.766
					C480.404,576.311,484.551,622.42,468.789,664.43z"/>
				<path fill="#152639" d="M523.384,609.69c13.528-43.551,18.049-89.877,13.197-135.222
					C519.927,515.45,515.151,561.178,523.384,609.69z"/>
				<path fill="#152639" d="M534.092,596.988c32.684-28.066,70.593-50.025,111.199-64.415
					C615.355,566.025,575.144,590.151,534.092,596.988z"/>
				<path fill="#152639" d="M573.013,546.206c10.354-34.007,9.642-71.289-2.001-104.877
					C561.933,475.659,563.12,512.634,573.013,546.206z"/>
				<path fill="#152639" d="M595.45,511.037c20.975-24.181,45.414-45.351,72.339-62.663
					C650.682,477.017,624.08,499.877,595.45,511.037z"/>
				<path fill="#152639" d="M615.816,468.575c5.964-27.556,2.045-57.145-10.887-82.198
					C603.292,415.725,607.436,445.384,615.816,468.575z"/>
				<path fill="#152639" d="M633.13,425.992c12.178-17.84,24.355-35.68,36.533-53.519
					C666.571,394.951,652.615,415.681,633.13,425.992z"/>
			</g>
		</g>
		<g display="none" clip-path="url(#SVGID_4_)">
			<path display="inline" fill="#DA8668" d="M584.771,1132.688c0,0,0.937,29.554-15.503,48.543
				c-16.44,18.989-53.459,20.716-53.459,20.716s-36.841,8.135-4.228-36.51c32.613-44.646,45.563-63.749,45.563-63.749
				S575.389,1106.534,584.771,1132.688z"/>
			<path display="inline" fill="#DA8668" d="M590.205,1070.293c0,0,9.088,98.854,0,121.262
				c-9.088,22.408-13.806,18.869-13.806,18.869s-12.973,2.278-5.897-37.19c7.076-39.468-43.892-52.848-37.278-82.718
				C539.838,1060.645,587.849,1038.498,590.205,1070.293z"/>
			<path display="inline" fill="#DA8668" d="M583.014,806.348c0,0,13.454,110.664,8.072,245.818
				c-3.401,55.369,3.08,83.147-43.37,71.921s-76.79-273.328-43.618-329.054S579.188,766.061,583.014,806.348z"/>
			<g display="inline">
				<path fill="#35141F" d="M519.53,530.258c0,0-39.275-83.991-43.108-166.48c-3.833-82.49-133.703-116.318-175.834-58.893
					c0,0-12.28,99.434-49.848,143.593c-36.654,43.083-38.713,91.018-38.713,91.018s11.892,1.939,31.131,4.392l29.445-54.897
					l-6.108,57.667C339.778,554.729,466.987,562.843,519.53,530.258z"/>
				<g>
					<path fill="#8EC5E4" d="M388.229,1220.597c44.286-5.09,128.204-5.647,172.044-13.717
						c11.931-60.68-21.021-128.962-17.733-192.165c-33.845,4.875-68.292,5.552-103.091,1.597
						C419.507,1088.892,400.668,1161.774,388.229,1220.597z"/>
					<path fill="#8EC5E4" d="M405.106,1215.504c-12.716,4.336-26.439,4.358-39.875,4.336c-62.153-0.104-124.891-0.27-184.454-14.909
						c8.965-44.29,17.93-88.579,26.894-132.869c4.622-22.834,9.26-45.73,16.506-67.872c0.555-1.695,1.178-3.468,2.518-4.646
						c1.555-1.366,3.751-1.657,5.809-1.876c66.085-7.041,132.799-1.156,198.948,5.27c2.668,0.26,5.679,0.711,7.212,2.91
						c1.548,2.221,24.008,6.257,23.292,8.867C443.244,1082.902,427.653,1155.112,405.106,1215.504z"/>
				</g>
				<path fill="#6EACD7" d="M203.801,1091.19c0,0,157.129,98.615,346.81,0H203.801z"/>
				<path fill="#8EC5E4" d="M443.38,550.738c20.746,17.406,43.528,34.108,66.621,52.385c25.16,19.913,41.174,49.218,44.377,81.144
					c13.089,130.451,5.271,330.69,5.964,402.567c-123.348,32.455-255.281,30.25-378.708-0.904
					c17.637-93.729,29.802-149.153,32.022-258.727c-3.511-48.143-18.683-177.322,8.027-217.529s67.049-71.183,111.424-83.1
					c22.02-7.78,46.212-0.673,68.459,6.432c7.432,2.374,14.978,4.803,21.437,9.179C429.461,546.563,434.795,553.238,443.38,550.738z
					"/>
				<g>
					<path fill="#1A2942" d="M137.425,852.281l219.206-87.131c4.756-1.89,10.115,0.67,11.632,5.559l49.701,160.104
						c1.429,4.604-1.12,9.5-5.712,10.969l-211.547,67.675c-4.368,1.397-9.077-0.802-10.809-5.049L132.537,863.76
						C130.693,859.24,132.889,854.084,137.425,852.281z"/>
					<polygon fill="#7295B8" points="375.852,829.332 408.959,821.583 427.592,883.439 394.08,890.616 					"/>
					<path fill="#7295B8" d="M410.532,839.065c5.952-1.674,13.12-1.443,17.364,3.052c1.896,2.007,2.991,4.656,3.593,7.35
						c1.102,4.931,0.606,10.299-1.876,14.7c-2.482,4.4-7.054,7.692-12.087,8.132L410.532,839.065z"/>
				</g>
				<path fill="#8EC5E4" d="M614.799,826.761c0,0-113.549-3.058-139.24,19.259c-32.966-16.758-80.192-89.975-47.966-145.093
					c11.298-19.324-5.155-163.386,16.638-158.272c8.918,2.093,85.25,50.684,91.937,56.946
					c29.906,28.009,57.264,111.881,67.024,151.676C608.094,771.271,614.799,826.761,614.799,826.761z"/>
				<path fill="#35141F" d="M412.873,231.604c26.227,8.302,74.347,19.143,91.769,40.432s25.585,51.403,16.017,77.194
					c-32.076-33.64-68.379-63.244-107.786-87.893C423.103,252.114,412.243,247.264,412.873,231.604z"/>
				<path fill="#DA8668" d="M440.735,461.352c-0.681,35.991-1.361,71.981-1.961,107.184c-18.988,11.804-44.467,8.073-63.661-3.395
					c-19.193-11.467-33.472-29.424-46.064-47.094c15.653-40.679,26.834-83.076,34.874-126.767
					c19.461-0.955,39.197,5.865,53.917,18.631C432.562,422.677,441.116,441.206,440.735,461.352z"/>
				<path fill="none" stroke="#152639" stroke-width="2.3365" stroke-linecap="round" stroke-miterlimit="10" d="M301.466,365.399
					c24.695-5.849,46.463-23.034,57.884-45.698c11.421-22.663,12.283-50.384,3.989-68.355c-4.184-4.36-11.186-5.018-16.881-2.999
					s-10.314,6.248-14.433,10.669C305.593,287.385,293.718,328.657,301.466,365.399z"/>
				<path fill="#35141F" d="M298.883,368.511c-9.822-30.259-4.854-64.948,13.066-91.232c17.921-26.286,48.396-43.584,80.151-45.496
					c31.755-1.912,64.086,11.605,85.031,35.55c13.043,14.912,21.88,34.603,19.61,54.283c-1.906,16.531-11.441,31.454-23.6,42.814
					c-12.159,11.361-26.863,19.582-41.593,27.323c-21.914,11.515-45.242,22.468-69.997,22.428
					C336.797,414.142,309.215,400.339,298.883,368.511z"/>
				<path d="M440.748,464.034c-1.091,8.416-7.955,20.676-14.183,21.461c-8.581,1.082-19.976-6.311-25.774-12.728
					c-15.194-16.815-23.353-29.703-30.826-51.098C392.465,442.459,417.128,443.022,440.748,464.034z"/>
				<path fill="#DA8668" d="M317.168,352.739c-8.01-39.409,15.706-82.062,52.251-98.842c36.545-16.78,82.385-8.227,112.623,18.285
					c30.237,26.512,44.704,68.85,40.34,108.827c-2.689,24.634-12.716,49.369-31.847,65.119
					c-28.084,23.12-70.529,21.947-102.937,5.426C350.121,432.448,325.53,393.878,317.168,352.739z"/>
				<path fill="#DA8668" d="M335.742,362.671c-6.761-7.171-15.026-13.339-24.619-15.598c-9.593-2.259-20.64,0.023-27.145,7.427
					c-5.492,6.252-7.052,15.125-6.526,23.43c0.675,10.653,4.572,21.252,11.803,29.104c7.231,7.852,17.928,12.692,28.572,11.894
					c10.644-0.799,20.868-7.636,24.769-17.571c2.714-6.912,2.336-14.742,0.286-21.878
					C340.831,372.341,338.093,365.165,335.742,362.671z"/>
				<path fill="none" stroke="#07092B" stroke-width="2.3365" stroke-linecap="round" stroke-miterlimit="10" d="M404.395,316.815
					c-4.419-9.021-14.254-15.112-24.299-15.049s-19.803,6.277-24.108,15.354l-11.461-2.99"/>
				<path fill="none" stroke="#07092B" stroke-width="2.3365" stroke-linecap="round" stroke-miterlimit="10" d="M445.519,305.803
					c3.461-8.047,11.329-14.029,20.009-15.212c8.679-1.183,17.861,2.476,23.349,9.304l11.231-5.771"/>
				<path fill="#07092B" d="M466.554,305.057c0.528,0.742,0.996,1.612,1.387,2.62c4.134,10.645-10.406,20.28-17.211,9.995
					C443.484,306.717,459.858,295.636,466.554,305.057z"/>
				<path fill="#07092B" d="M380.553,311.052c7.26,4.718,9.877,19.154-3.715,18.864c-4.128-0.088-8.134-2.729-9.698-6.55
					c-1.563-3.821-0.497-8.605,2.643-11.287C373.621,308.802,377.498,309.067,380.553,311.052z"/>
				<path fill="none" stroke="#B95237" stroke-width="2.3365" stroke-miterlimit="10" d="M461.811,384.521
					c-6.753,3.618-14.504,5.35-22.154,4.949"/>
				<path fill="#DA8668" d="M343.852,500.726c-16.699,19.132-37.168,34.959-60.122,46.119c16.507,23.561,33.371,47.5,56.125,65.103
					c22.753,17.602,52.719,28.218,80.626,21.235c27.907-6.983,50.997-35.252,48.417-60.123c-15.2-19.106-30.4-38.213-45.435-53.438
					C401.207,502.395,371.34,495.399,343.852,500.726z"/>
				<g>
					<path fill="#DA8668" d="M210.446,833.378c16.883,26.143,53.253,127.879,67.905,155.781c0.411,16.223-8.99,12.724-24.826,16.271
						c-15.836,3.546-20.594,14.842-28.228,0.473c-10.047-19.926-34.354-59.447-45.911-78.084
						c-73.771-75.786-57.201-108.592-47.501-116.069C141.583,804.271,193.878,830.443,210.446,833.378z"/>
					<path fill="#DA8668" d="M248.417,987.916c4.615-7.894,30.176-13.711,38.824-10.74c8.648,2.972,24.589,7.988,30.426,15.026
						c5.45,6.571,10.485,13.486,15.067,20.689c2.593,4.077,5.129,8.595,4.768,13.413c-0.364,4.855-3.744,9.125-7.959,11.563
						c-4.215,2.438-9.17,3.274-14.356,3.309c-14.364-11.671-28.926-23.552-39.504-38.737
						C271.54,996.489,244.706,994.266,248.417,987.916z"/>
					<path fill="#DA8668" d="M309.913,1025.566c1.388,7.939,6.55,14.595,10.888,21.389c4.338,6.793,8.093,14.839,6.212,22.677
						c-1.144,4.765-4.845,9.211-9.705,9.836c-4.538,0.584-8.822-2.152-12.251-5.182c-6.777-5.989-12.068-13.647-15.271-22.104
						c-1.766-4.662-2.912-9.659-2.437-14.621c0.476-4.962,2.73-9.896,6.736-12.862
						C298.092,1021.733,303.939,1021.113,309.913,1025.566z"/>
					<path fill="#DA8668" d="M303.255,1064.477c-10.438,5.309-21.175,10.436-32.719,12.397c-11.544,1.963-24.159,0.41-33.509-6.639
						c-14.749-11.118-17.439-31.846-18.617-50.278c-0.372-5.819-0.631-12.015,2.244-17.088c3.538-6.243,10.83-9.143,17.574-11.595
						c9.452-3.437,19.684-6.913,29.355-4.157c11.532,3.286,18.826,14.389,24.554,24.923c4.733,8.705,9.161,17.721,11.214,27.414
						C305.404,1049.148,304.897,1059.685,303.255,1064.477z"/>
				</g>
				<path fill="#8EC5E4" d="M311.457,530.258l109.024,102.924l19.667-95.336c0,0,51.542,45.363,65.729,53.969
					c35.251,91.122-104.401,127.453-104.401,127.453l-131.588-138.88v-22.193L311.457,530.258z"/>
				<g>
					<defs>
						<path id="SVGID_5_" d="M316.901,352.734c-8.031-39.511,15.746-82.275,52.387-99.1c36.642-16.824,82.601-8.249,112.917,18.333
							s44.82,69.03,40.445,109.111c-2.696,24.698-12.75,49.498-31.931,65.289c-28.157,23.18-70.713,22.004-103.206,5.44
							C349.94,432.652,325.285,393.981,316.901,352.734z"/>
					</defs>
					<clipPath id="SVGID_6_">
						<use xlink:href="#SVGID_5_"  overflow="visible"/>
					</clipPath>
					<path clip-path="url(#SVGID_6_)" fill="#CE5555" d="M514.592,306.326c-8.238-2.921-17.384-3.895-25.743-1.338
						c-8.358,2.556-15.753,8.997-18.162,17.399c-2.199,7.668-0.141,15.969,3.272,23.18c2.876,6.076,6.788,11.778,12.085,15.918
						c5.297,4.141,12.083,6.608,18.769,5.901c13.161-1.392,22.466-14.742,23.787-27.911
						C529.923,326.307,526.581,310.578,514.592,306.326z"/>
					<path clip-path="url(#SVGID_6_)" fill="#CE5555" d="M348.631,325.613c10.747,0.504,21.714,3.423,30.003,10.282
						c8.288,6.86,13.372,18.152,10.928,28.63c-1.937,8.306-8.341,15.161-16.042,18.828s-16.554,4.397-25.02,3.358
						c-8.552-1.05-17.298-4.129-22.86-10.71c-6.601-7.81-7.426-19.527-3.425-28.938S333.642,324.911,348.631,325.613z"/>
				</g>
				<g>
					<path fill="#8EC5E4" d="M238.173,832.832c0,0-4.034-14.142-6.378-22.305c33.573-42.143,91.926-64.802,95.716-118.549
						c0.958-13.583,4.813-70.042,0-82.779c-4.813-12.737-30.489-59.396-43.78-62.354c-22.374-4.979-89.539,48.872-104.347,66.367
						c-44.384,52.437-65.139,120.398-100.017,177.757c-9.807,27.779,20.99,106.765,32.687,125.722
						C112.053,916.69,183,835.185,238.173,832.832z"/>
					<path fill="none" stroke="#FFFFFF" stroke-width="2.3365" stroke-linejoin="round" stroke-miterlimit="10" d="M227.678,795.253
						c-16.065-21.158-39.757-43.16-59.404-37.116"/>
					<path fill="none" stroke="#FFFFFF" stroke-width="2.3365" stroke-linejoin="round" stroke-miterlimit="10" d="M199.634,752.093
						c12.591,11.893,22.292,26.823,28.044,43.16"/>
				</g>
				<polyline fill="none" stroke="#FFFFFF" stroke-width="2.3365" stroke-linejoin="round" stroke-miterlimit="10" points="
					297.417,539.878 416.467,654.494 430.925,654.494 455.059,555.775 				"/>
				<path fill="#35141F" d="M344.526,273.19c0,0-11.402,112.084,18.104,138.824c0,0-54.864-13.014-59.014-74.05
					c-4.149-61.036,40.91-76.711,40.91-76.711V273.19z"/>
				<path fill="#35141F" d="M472.25,266.606l10.811,20.638l0.155-0.011l20.883-1.465c0,0-22.229-79.659-107.463-63.246
					c-85.233,16.413-60.229,64.92-60.229,64.92l25.182,2.929l1.931,0.224l6.444-23.086l4.68,24.38l41.962,4.25l1.937-28.233
					l6.945,27.419l29.44-4.909l12.896-1.832L472.25,266.606z"/>
				<polygon fill="#B95237" points="435.301,317.12 459.382,352.129 429.079,360.147 				"/>
				<path fill="none" stroke="#07092B" stroke-width="2.3365" stroke-linecap="round" stroke-miterlimit="10" d="M422.224,377.649
					c0,0,26.307,9.685,46.59-5.446"/>
				
					<line fill="none" stroke="#07092B" stroke-width="2.3365" stroke-linecap="round" stroke-miterlimit="10" x1="362.63" y1="326.239" x2="350.661" y2="332.563"/>
				
					<line fill="none" stroke="#07092B" stroke-width="2.3365" stroke-linecap="round" stroke-miterlimit="10" x1="368.453" y1="330.892" x2="361.285" y2="342.375"/>
				
					<line fill="none" stroke="#07092B" stroke-width="2.3365" stroke-linecap="round" stroke-miterlimit="10" x1="472.813" y1="314.922" x2="487.799" y2="322.061"/>
				
					<line fill="none" stroke="#07092B" stroke-width="2.3365" stroke-linecap="round" stroke-miterlimit="10" x1="480.306" y1="306.327" x2="491.127" y2="306.327"/>
				<path fill="none" stroke="#FFFFFF" stroke-width="2.3365" stroke-linejoin="round" stroke-miterlimit="10" d="M533.224,671.041
					c0,0,28.094,35.238,28.809,119.109c0.855,100.466-1.691,296.684-1.691,296.684"/>
			</g>
		</g>
		<g clip-path="url(#SVGID_4_)">
			<path fill="#DA4949" d="M1508.677,354.019c-24.293-20.802-57.748-49.292-74.783-76.359c-5.399-8.58-10.567-18.204-9.445-28.279
				c1.426-12.8,13.422-22.771,26.182-24.523c12.759-1.752,27.696,4.512,37.89,12.384s22.952,23.427,22.952,23.427
				s21.69-23.015,34.875-31.074s31.766-9.48,43.193,0.922c8.462,7.703,11.208,20.286,9.302,31.569s-7.842,21.481-14.535,30.763
				C1564.317,320.568,1536.816,336.971,1508.677,354.019z"/>
			<g>
				<g>
					<defs>
						<path id="SVGID_7_" d="M1458.659,312.444c12.081-7.174,20.038-13.915,29.95-23.874c2.848-2.861,5.682-5.979,6.801-9.857
							c1.143-3.961,0.243-8.475-2.403-11.635c-2.647-3.161-6.985-4.842-11.058-4.199c-3.9,0.616-7.196,3.126-10.31,5.554
							c-9.748,7.604-19.497,15.208-29.245,22.811L1458.659,312.444z"/>
					</defs>
					<clipPath id="SVGID_8_">
						<use xlink:href="#SVGID_7_"  overflow="visible"/>
					</clipPath>
					<path clip-path="url(#SVGID_8_)" fill="#F7F3E1" d="M1455.443,314.407c12.081-7.175,23.254-15.878,33.166-25.836
						c2.848-2.861,5.682-5.979,6.801-9.857c1.143-3.961,0.243-8.475-2.403-11.635c-2.647-3.161-6.985-4.842-11.058-4.199
						c-3.9,0.616-7.196,3.126-10.31,5.554c-9.748,7.604-19.497,15.208-29.245,22.811L1455.443,314.407z"/>
					<path clip-path="url(#SVGID_8_)" fill="#EBE3C6" d="M1463.164,267.116c9.892,11.356,18.659,23.692,26.131,36.768
						c-6.437,4.777-13.42,8.818-20.769,12.018c-9.225-10.986-18.448-21.972-27.673-32.958
						C1447.623,276.625,1455.157,271.127,1463.164,267.116z"/>
				</g>
				<g>
					<g>
						<path fill="#E4C8A2" d="M1471.913,288.11c2.619,0.009,2.613,3.993,0,4.009C1469.293,292.111,1469.299,288.127,1471.913,288.11
							z"/>
						<path fill="#E4C8A2" d="M1464.598,277.869c2.619,0.009,2.613,3.993,0,4.009
							C1461.978,281.869,1461.984,277.885,1464.598,277.869z"/>
						<path fill="#E4C8A2" d="M1463.72,288.11c2.619,0.009,2.613,3.993,0,4.009C1461.1,292.111,1461.106,288.127,1463.72,288.11z"/>
						<path fill="#E4C8A2" d="M1463.427,297.474c2.62,0.009,2.613,3.993,0,4.009
							C1460.808,301.475,1460.813,297.491,1463.427,297.474z"/>
						<path fill="#E4C8A2" d="M1456.697,287.232c2.619,0.009,2.612,3.993-0.001,4.01
							C1454.077,291.233,1454.083,287.249,1456.697,287.232z"/>
					</g>
				</g>
			</g>
			<path fill="#DF6565" d="M1574.963,231.209c0,0,10.81,0.268,15.331,11.318L1574.963,231.209z"/>
		</g>
		<g clip-path="url(#SVGID_4_)">
			<path fill="#152639" stroke="#152639" stroke-width="3.2753" stroke-miterlimit="10" d="M1277.735,199.98
				c-7.113-1.808-14.335-2.347-21.217-1.583c-2.548,0.283-5.451,1.122-5.893,3.667c-0.435,2.508,2.042,5.272,4.624,6.049
				s5.125,0.101,7.438-0.718C1267.992,205.516,1272.911,202.894,1277.735,199.98z"/>
			<path fill="#152639" stroke="#152639" stroke-width="2.7411" stroke-miterlimit="10" d="M1220.946,213.846
				c2.452-2.786,4.938-5.59,7.996-7.737c3.057-2.147,6.773-3.612,10.661-3.396c2.179,0.121,4.688,1.063,5.432,3.11
				c0.469,1.291,0.078,2.717-0.722,3.756c-0.801,1.039-1.961,1.748-3.147,2.348C1235.463,214.811,1228.567,215.571,1220.946,213.846
				z"/>
			<path fill="none" stroke="#152639" stroke-width="2.7411" stroke-miterlimit="10" d="M1222.067,213.597
				c-46.515,31.379-23.313,88.646,2.149,124.173c13.525,27.82,43.588,40.374,77.015,29.152
				c30.085-11.504,52.902-42.286,43.607-74.288c-12.226-35.287-14.365-102.266-67.104-92.653"/>
			<path fill="none" stroke="#152639" stroke-width="2.7411" stroke-miterlimit="10" d="M1294.857,368.769
				c8.854,29.215,17.584,61.419,5.406,89.413c-8.146,18.727-24.695,32.797-32.93,51.485c-10.133,22.998-5.517,51.746,11.307,70.415
				c16.824,18.67,44.939,26.242,68.863,18.55c23.925-7.693,42.356-30.234,45.146-55.21c0.75-6.716,0.38-13.825-2.895-19.736
				c-3.273-5.911-10.009-10.262-16.671-9.128c-7.281,1.238-12.407,8.949-11.952,16.321c0.456,7.372,5.623,13.92,12.15,17.378
				c6.526,3.458,14.212,4.169,21.566,3.486c16.925-1.571,32.353-9.976,47.156-18.328c14.803-8.353,30.03-17.001,46.892-19.146
				s35.982,3.884,44.157,18.787"/>
			<path fill="#152639" d="M1527.652,532.448c52.122-39.556,105.456,46.906,51.44,76.599
				C1538.413,631.408,1484.772,574.066,1527.652,532.448z"/>
			<path fill="#FFFFFF" d="M1536.247,543.053c36.791-27.922,74.438,33.109,36.311,54.068
				C1543.843,612.906,1505.979,572.43,1536.247,543.053z"/>
			<path fill="#6694C0" d="M1542.61,550.904c25.44-19.308,51.474,22.895,25.108,37.388
				C1547.862,599.207,1521.68,571.218,1542.61,550.904z"/>
			<g>
				<g>
					<path fill="#6694C0" d="M1277.515,375.854c8.168,0,16.68-1.394,25.278-4.281l0.19-0.068
						c16.012-6.123,30.213-17.574,38.966-31.418c9.624-15.223,12.324-32.562,7.601-48.821c-0.755-2.602-3.476-4.103-6.078-3.343
						c-2.604,0.756-4.1,3.478-3.344,6.08c8.951,30.825-14.198,58.178-40.555,68.301c-30.299,10.128-58.137-0.336-70.944-26.679
						c-1.185-2.437-4.119-3.452-6.558-2.267c-2.437,1.185-3.452,4.121-2.268,6.558
						C1231.002,362.949,1252.664,375.854,1277.515,375.854z"/>
				</g>
			</g>
		</g>
		<g clip-path="url(#SVGID_4_)">
			<path fill="#597790" d="M1481.503,382.417l4.662,24.007l-10.511,1.761C1475.654,408.185,1470.234,391.438,1481.503,382.417z"/>
			<path fill="#1A2942" d="M1531.332,411.242c4.282,5.738,7.74,12.09,10.196,17.622c-28.004,86.819-52.859,174.653-74.639,263.76
				c-5.676,3.404-11.352,6.809-17.027,10.213c0,0-167.625-35.261-167.852-35.517c-4.193-4.055-8.387-8.108-12.58-12.162
				c0,0,81.115-259.383,81.959-260.504c3.121-3.356,6.242-6.713,9.363-10.069L1531.332,411.242z"/>
			<polygon fill="#F9F5E3" points="1523.651,424.666 1360.688,396.799 1287.213,649.107 1451.24,684.756 			"/>
			<path fill="#7397BA" d="M1481.503,382.417c-4.527,6.738-7.023,17.736-5.849,25.768c0,0-66.199-8.9-67.121-9.783
				c-2.133-9.323,1.269-19.7,8.507-25.951L1481.503,382.417z"/>
			<path fill="#7397BA" d="M1459.609,381.049c-2.369-5.979-7.219-11.218-13.44-12.843s-13.648,1.1-16.371,6.925L1459.609,381.049z"
				/>
			<path fill="none" stroke="#7397BA" stroke-width="2.6484" stroke-miterlimit="10" d="M1482.807,451.296
				c-3.678,2.426-8.521,2.985-12.656,1.462c-4.134-1.523-7.457-5.093-8.681-9.325c1.079,1.642-1.319,3.665-3.248,3.292
				c-1.93-0.373-3.374-1.939-5.108-2.861c-3.428-1.822-8.122-0.735-10.399,2.409c-1.875-5.913-9.884-8.862-15.146-5.579
				c0,1.028,0.931,1.965,1.959,1.973c-3.813-6.749-12.643-10.184-20.014-7.788c-3.39-4.093-9.224-4.957-14.506-5.536
				c-6.092-0.668-12.185-1.336-18.277-2.004"/>
			<path fill="none" stroke="#7397BA" stroke-width="2.6484" stroke-miterlimit="10" d="M1470.137,470.939
				c-4.099,1.361-8.788,2.677-12.547,0.55c-1.147-0.649-2.151-1.6-3.422-1.952c-2.367-0.656-4.691,0.93-6.991,1.792
				c-5.182,1.941-11.581-0.189-14.564-4.849c-0.896-1.401-1.534-3.018-2.792-4.107c-2.249-1.946-6.217-1.279-7.706,1.295
				c-0.324,0.561-0.53,1.291-0.182,1.836c0.349,0.545,1.419,0.47,1.459-0.176c-4.521-4.431-11.953-5.546-17.575-2.638
				c-3.773-3.468-8.432-7.196-13.438-6.098c-2.811,0.617-5.347,2.739-8.203,2.39c-2.854-0.35-6.335-2.885-8.034-0.565"/>
			<path fill="none" stroke="#7397BA" stroke-width="2.6484" stroke-miterlimit="10" d="M1364.346,620.631
				c-3.243-1.497-6.376-3.233-9.363-5.191c-0.752-0.493-1.556-1.089-1.729-1.97c-0.174-0.882,0.794-1.918,1.562-1.451
				c-1.592,3.221-5.903,4.28-9.363,3.313c-3.459-0.969-6.258-3.45-8.925-5.857c-0.774,1.269-0.106,3.001-0.732,4.35
				c-1.014,2.182-4.373,1.669-6.24,0.153c-1.867-1.517-3.373-3.738-5.727-4.233c-1.255-0.265-2.549,0.021-3.827,0.118
				c-3.993,0.303-8.089-1.377-10.721-4.396"/>
			<path fill="none" stroke="#7397BA" stroke-width="2.6484" stroke-miterlimit="10" d="M1360.542,630.614
				c-4.52-0.829-9.291-1.778-12.705-4.854c-0.524-0.473-1.035-1.006-1.705-1.229c-2.78-0.926-4.414,3.805-7.329,4.106
				c-3.339,0.346-5.085-5.195-8.416-4.78c-1.139,0.142-2.064,0.991-3.168,1.308c-1.923,0.552-4.163-0.909-4.434-2.892
				c-2.602,0.221-5.248-0.109-7.715-0.961"/>
			<path fill="none" stroke="#7397BA" stroke-width="2.6484" stroke-miterlimit="10" d="M1348.315,639.297
				c-2.813-0.98-5.624-1.961-8.437-2.942c-0.847-0.295-1.738-0.595-2.622-0.445c-1.715,0.289-2.921,2.175-4.659,2.185
				c-2.743,0.016-3.844-4.461-6.587-4.434c-0.809,0.008-1.543,0.435-2.286,0.754c-2.227,0.955-4.84,0.967-7.073,0.03"/>
			<polygon fill="#EDE5C8" points="1471.546,497.74 1443.17,607.984 1325.466,586.205 1358.181,477.108 			"/>
		</g>
		<polygon clip-path="url(#SVGID_4_)" fill="#FFFFFF" points="1371.283,343.371 1359.188,339.829 1362.73,351.924 1359.188,364.019 
			1371.283,360.477 1383.378,364.019 1379.836,351.924 1383.378,339.829 		"/>
		<g clip-path="url(#SVGID_4_)">
			
				<rect x="1380.217" y="300.617" transform="matrix(-0.9643 -0.265 0.265 -0.9643 2630.5427 976.874)" fill="#FFFFFF" width="1.889" height="20.782"/>
			
				<rect x="1380.217" y="300.617" transform="matrix(-0.2649 0.9643 -0.9643 -0.2649 2046.8865 -938.4487)" fill="#FFFFFF" width="1.888" height="20.782"/>
		</g>
		<polygon clip-path="url(#SVGID_4_)" fill="#FFFFFF" points="1326.639,381.279 1333.096,379.984 1331.801,373.528 
			1333.995,373.088 1335.29,379.544 1341.746,378.25 1342.186,380.444 1335.729,381.739 1337.024,388.195 1334.83,388.635 
			1333.535,382.179 1327.079,383.473 		"/>
	</g>
</g>
<g id="TEXTS" display="none">
	<g display="inline">
		<g>
			<text transform="matrix(1 0 0 1 750.9019 564.3691)" fill="#152639" font-family="'Poppins-Bold'" font-size="118.6727">OFFLINE</text>
		</g>
		<g>
			
				<text transform="matrix(1 0 0 1 729.8354 610.5938)" fill="#4375B6" font-family="'Poppins-Regular'" font-size="33.8324" letter-spacing="1">www.twitch.tv/username</text>
		</g>
		<text transform="matrix(1 0 0 1 729.8398 455.6909)" fill="#FFFFFF" font-family="'Poppins-SemiBold'" font-size="40.9829">Username is currently</text>
	</g>
	<g display="inline">
		<path fill="#FFFFFF" d="M1059.132,837.733H862.436c-15.253,0-27.618-12.365-27.618-27.618l0,0
			c0-15.254,12.365-27.618,27.618-27.618h196.696c15.253,0,27.618,12.364,27.618,27.618l0,0
			C1086.75,825.368,1074.385,837.733,1059.132,837.733z"/>
		<g>
			
				<text transform="matrix(1 0 0 1 849.4087 821.5332)" fill="#4375B6" font-family="'Poppins-Regular'" font-size="33.8324" letter-spacing="1">@username</text>
		</g>
	</g>
	<g display="inline">
		<g>
			<g id="XMLID_00000097472241755692718370000012593269598065618821_">
				<g id="XMLID_00000035500081169636585390000005733871764332148660_">
					<g>
						<path fill="#4375B6" d="M1154.551,713.451c-0.328-0.847-0.722-1.45-1.356-2.085s-1.238-1.028-2.085-1.356
							c-0.639-0.249-1.6-0.544-3.367-0.625c-1.912-0.087-2.485-0.105-7.326-0.105c-4.843,0-5.416,0.019-7.328,0.105
							c-1.768,0.081-2.729,0.376-3.366,0.625c-0.847,0.328-1.451,0.722-2.085,1.356c-0.635,0.635-1.027,1.238-1.357,2.085
							c-0.248,0.639-0.543,1.6-0.625,3.367c-0.086,1.911-0.105,2.485-0.105,7.326c0,4.843,0.02,5.416,0.105,7.327
							c0.082,1.769,0.377,2.729,0.625,3.368c0.33,0.846,0.723,1.45,1.357,2.085c0.634,0.635,1.238,1.027,2.085,1.355
							c0.638,0.25,1.599,0.544,3.366,0.625c1.912,0.087,2.485,0.105,7.328,0.105c4.842,0,5.414-0.019,7.326-0.105
							c1.768-0.081,2.729-0.375,3.367-0.625c0.847-0.328,1.45-0.721,2.085-1.355s1.028-1.239,1.356-2.085
							c0.249-0.64,0.543-1.6,0.625-3.368c0.087-1.911,0.106-2.484,0.106-7.327c0-4.841-0.02-5.415-0.106-7.326
							C1155.094,715.051,1154.8,714.09,1154.551,713.451 M1140.416,733.457c-5.143,0-9.313-4.169-9.313-9.313
							c0-5.143,4.17-9.311,9.313-9.311c5.142,0,9.311,4.168,9.311,9.311C1149.727,729.288,1145.558,733.457,1140.416,733.457
							 M1150.095,716.643c-1.202,0-2.176-0.975-2.176-2.177c0-1.201,0.974-2.176,2.176-2.176s2.176,0.975,2.176,2.176
							C1152.271,715.668,1151.297,716.643,1150.095,716.643"/>
					</g>
				</g>
				<g id="XMLID_00000106826774138927699370000015598739178090827417_">
					<path fill="#4375B6" d="M1140.416,718.102c-3.339,0-6.045,2.706-6.045,6.044c0,3.339,2.706,6.045,6.045,6.045
						c3.337,0,6.044-2.706,6.044-6.045C1146.46,720.808,1143.753,718.102,1140.416,718.102"/>
				</g>
				<g id="XMLID_00000083803489028130013560000001412982991049959604_">
					<g>
						<path fill="#4375B6" d="M1140.383,692.125c-17.322,0-31.364,14.042-31.364,31.364c0,17.321,14.042,31.363,31.364,31.363
							c17.321,0,31.364-14.042,31.364-31.363C1171.747,706.167,1157.704,692.125,1140.383,692.125 M1158.439,731.621
							c-0.088,1.931-0.395,3.249-0.844,4.402c-0.463,1.192-1.082,2.203-2.091,3.211c-1.008,1.009-2.02,1.629-3.212,2.093
							c-1.153,0.447-2.472,0.753-4.401,0.843c-1.934,0.088-2.551,0.108-7.476,0.108c-4.926,0-5.543-0.021-7.477-0.108
							c-1.931-0.09-3.249-0.396-4.402-0.843c-1.191-0.464-2.203-1.084-3.211-2.093c-1.008-1.008-1.628-2.019-2.092-3.211
							c-0.448-1.153-0.755-2.472-0.843-4.402c-0.089-1.934-0.109-2.552-0.109-7.475c0-4.926,0.021-5.543,0.109-7.479
							c0.088-1.929,0.395-3.246,0.843-4.4c0.464-1.192,1.084-2.203,2.092-3.212c1.008-1.008,2.02-1.627,3.211-2.091
							c1.153-0.448,2.472-0.755,4.402-0.844c1.934-0.088,2.551-0.108,7.477-0.108c4.925,0,5.542,0.021,7.476,0.108
							c1.93,0.089,3.248,0.396,4.401,0.844c1.192,0.464,2.204,1.083,3.212,2.091c1.009,1.009,1.628,2.02,2.091,3.212
							c0.449,1.154,0.756,2.472,0.844,4.4c0.088,1.936,0.109,2.553,0.109,7.479C1158.549,729.069,1158.527,729.688,1158.439,731.621
							"/>
					</g>
				</g>
			</g>
			<g id="XMLID_00000034796676451207916580000008224673639435616444_">
				<g>
					<path fill="#4375B6" d="M1020.128,692.125c-17.322,0-31.364,14.042-31.364,31.364c0,17.321,14.042,31.363,31.364,31.363
						c17.321,0,31.363-14.042,31.363-31.363C1051.491,706.167,1037.449,692.125,1020.128,692.125 M1029.338,711.151h-4.356
						c-1.539,0-1.858,0.63-1.858,2.221v3.845h6.215l-0.598,6.75h-5.617v20.159h-8.051v-20.075h-4.188v-6.834h4.188v-5.382
						c0-5.051,2.701-7.688,8.691-7.688h5.574V711.151z"/>
				</g>
			</g>
			<g id="XMLID_00000043435852648081349350000006390944165824922759_">
				<g>
					<path fill="#4375B6" d="M899.873,692.125c-17.322,0-31.364,14.042-31.364,31.364c0,17.321,14.042,31.363,31.364,31.363
						c17.321,0,31.364-14.042,31.364-31.363C931.237,706.167,917.194,692.125,899.873,692.125 M916.228,717.842
						c0.457,10.171-7.126,21.509-20.551,21.509c-4.082,0-7.883-1.198-11.083-3.249c3.836,0.453,7.665-0.611,10.704-2.995
						c-3.164-0.058-5.835-2.146-6.753-5.021c1.131,0.217,2.246,0.154,3.264-0.123c-3.478-0.699-5.877-3.831-5.8-7.182
						c0.975,0.542,2.091,0.868,3.277,0.905c-3.221-2.151-4.133-6.403-2.238-9.653c3.565,4.375,8.893,7.254,14.902,7.555
						c-1.054-4.522,2.376-8.878,7.042-8.878c2.081,0,3.959,0.879,5.278,2.284c1.646-0.325,3.193-0.928,4.591-1.756
						c-0.54,1.689-1.686,3.106-3.179,4c1.462-0.175,2.855-0.563,4.152-1.138C918.866,715.551,917.64,716.824,916.228,717.842"/>
				</g>
			</g>
			<g id="XMLID_00000121994368807668416290000011878787753150717091_">
				<g id="XMLID_00000021094078949531684150000009941221541128860578_">
					<g>
						<path fill="#4375B6" d="M780.034,706.821c-7.762,0-14.167,5.896-14.9,13.416c-0.05,0.476-0.076,0.96-0.076,1.443
							c0,3.251,1.059,6.262,2.852,8.713l-1.867,5.52l5.753-1.834c2.369,1.559,5.194,2.459,8.238,2.459
							c8.254,0,14.975-6.662,14.975-14.857c0-0.393-0.018-0.776-0.05-1.16C794.358,712.866,787.896,706.821,780.034,706.821
							 M788.771,727.809c-0.358,1.017-2.142,1.993-2.943,2.06c-0.8,0.075-0.8,0.65-5.245-1.076
							c-4.436-1.742-7.238-6.262-7.454-6.545c-0.167-0.217-1.118-1.476-1.56-3.001c-0.134-0.477-0.226-0.977-0.226-1.476
							c0-2.136,1.126-3.187,1.526-3.619c0.401-0.434,0.876-0.543,1.168-0.543c0.292,0,0.583,0.042,0.834,0.042
							c0.258,0,0.625-0.15,0.983,0.717c0.367,0.867,1.242,3.002,1.35,3.22c0.109,0.216,0.184,0.467,0.034,0.759
							c-0.1,0.207-0.175,0.358-0.275,0.516c-0.05,0.067-0.1,0.134-0.159,0.209c-0.225,0.25-0.458,0.559-0.658,0.759
							c-0.217,0.217-0.442,0.45-0.192,0.884s1.135,1.851,2.426,2.993c1.667,1.484,3.078,1.935,3.511,2.151
							c0.441,0.216,0.692,0.184,0.95-0.107c0.251-0.284,1.092-1.261,1.384-1.693c0.292-0.434,0.584-0.367,0.985-0.217
							c0.399,0.142,2.543,1.191,2.984,1.409c0.434,0.217,0.726,0.325,0.834,0.501C789.139,725.932,789.139,726.799,788.771,727.809"
							/>
					</g>
				</g>
				<g id="XMLID_00000126291199321882770450000012990414542340463512_">
					<g>
						<path fill="#4375B6" d="M779.618,692.125c-17.321,0-31.363,14.042-31.363,31.364c0,17.321,14.042,31.363,31.363,31.363
							c17.322,0,31.365-14.042,31.365-31.363C810.982,706.167,796.94,692.125,779.618,692.125 M780.034,739.356
							c-3.119,0-6.054-0.801-8.605-2.201l-9.864,3.135l3.21-9.479c-1.618-2.668-2.552-5.786-2.552-9.13
							c0-0.259,0.008-0.518,0.017-0.776c0.417-9.405,8.221-16.9,17.793-16.9c9.688,0,17.56,7.671,17.802,17.227
							c0.008,0.15,0.008,0.3,0.008,0.45C797.844,731.444,789.872,739.356,780.034,739.356"/>
					</g>
				</g>
			</g>
		</g>
	</g>
</g>
</svg>
