<?xml version="1.0" encoding="utf-8"?>
<!-- Generator: Adobe Illustrator 16.0.0, SVG Export Plug-In . SVG Version: 6.00 Build 0)  -->
<!DOCTYPE svg PUBLIC "-//W3C//DTD SVG 1.1//EN" "http://www.w3.org/Graphics/SVG/1.1/DTD/svg11.dtd">
<svg version="1.1" xmlns="http://www.w3.org/2000/svg" xmlns:xlink="http://www.w3.org/1999/xlink" x="0px" y="0px" width="1920px"
	 height="1080px" viewBox="0 0 1920 1080" enable-background="new 0 0 1920 1080" xml:space="preserve">
<g id="Livello_1">
	<g id="BACKGROUND">
		<g>
			<g>
				<defs>
					<rect id="SVGID_1_" x="0" y="0" width="1920" height="1080"/>
				</defs>
				<clipPath id="SVGID_2_">
					<use xlink:href="#SVGID_1_"  overflow="visible"/>
				</clipPath>
				<rect x="0" y="0" clip-path="url(#SVGID_2_)" fill="#C6E1EF" width="1920" height="1080"/>
			</g>
			<g>
				<defs>
					<rect id="SVGID_3_" x="0" y="0" width="1920" height="1080"/>
				</defs>
				<clipPath id="SVGID_4_">
					<use xlink:href="#SVGID_3_"  overflow="visible"/>
				</clipPath>
				<path clip-path="url(#SVGID_4_)" fill="#D7ECF7" d="M1258.789,730.719c-58.151,15.301-104.168,60.927-157.188,90.525
					c-146.419,81.743-219.571-60.563-262.834-176.952c-20.958-56.384-54.146-115.644-111.559-133.595
					c-66.817-20.892-134.645,22.118-195.716,56.341c-79.346,44.465-165.49,76.698-254.456,95.566
					c-87.513,18.561-176.854,11.226-257.525,55.175c-84.507,46.037-149.223,143.474-125.709,236.787
					c12.036,47.764,45.238,88.032,84.486,117.801c57.131,43.332,128.147,61.897,181.263,109.287
					c55.942,49.912,92.189,120.953,113.105,192.04c33.032,112.268,37.331,232.066,77.102,342.127
					c39.77,110.062,130.759,215.205,247.747,218.262c131.428,3.433,185.953-94.521,277.278-164.604
					c94.892-72.818,214.202-114.438,334.075-112.719c74.81,1.071,151.483,17.672,223.256-3.451
					c112.233-33.032,180.989-152.784,190.98-269.349c11.822-137.942-35.024-305.994-84.225-433.742
					c-22.813-59.233-51.529-117.853-97.11-162.027s-110.796-72.038-173.071-59.751
					C1265.35,729.099,1262.051,729.861,1258.789,730.719z"/>
			</g>
			<g>
				<defs>
					<rect id="SVGID_5_" x="0" y="0" width="1920" height="1080"/>
				</defs>
				<clipPath id="SVGID_6_">
					<use xlink:href="#SVGID_5_"  overflow="visible"/>
				</clipPath>
				<path clip-path="url(#SVGID_6_)" fill="#AED9EB" d="M956.621,219.911c-75.897,15.875-155.4-4.8-233.678-5.845
					c-216.171-2.885-217.927,177.278-200.269,315.787c8.554,67.098,4.682,143.578-51.074,192.03
					c-64.889,56.389-168.01,49.952-258.25,48.62c-117.241-1.729-235.225,12.302-348.706,41.089
					c-111.626,28.315-210.337,83.286-328.81,82.776c-124.104-0.533-255.213-62.599-282.246-167.682
					c-13.837-53.788,1.068-111.443,29.034-161.916c40.708-73.468,111.786-129.792,145.511-205.141
					c35.52-79.359,36.083-169.154,18.952-250.811c-27.058-128.958-91.6-250.045-109.611-380.413s25.858-283.205,158.917-348.693
					c149.481-73.57,269.148-5.551,415.06,15.187c151.605,21.546,313.259-0.883,450.418-66.585
					c85.596-41.002,164.334-98.398,259.308-115.771c148.514-27.166,297.226,54.872,376.36,165.122
					c93.648,130.47,137.146,322.119,154.551,475.061c8.069,70.914,8.979,144.37-17.929,212.51
					c-26.906,68.138-85.904,130.584-164.807,151.647C965.121,218.016,960.877,219.021,956.621,219.911z"/>
			</g>
			<g>
				<defs>
					<rect id="SVGID_7_" x="0" y="0" width="1920" height="1080"/>
				</defs>
				<clipPath id="SVGID_8_">
					<use xlink:href="#SVGID_7_"  overflow="visible"/>
				</clipPath>
				<path clip-path="url(#SVGID_8_)" fill="#AED9EB" d="M2111.526,1505.432c-65.336,29.451-140.934,27.892-211.658,43.133
					c-195.316,42.092-162.328,198.979-119.844,315.669c20.581,56.529,31.768,123.772-9.17,177.37
					c-47.645,62.377-141.788,78.06-223.346,95.521c-105.963,22.687-209.57,59.216-306.29,107.639
					c-95.139,47.631-173.526,115.753-280.364,139.753c-111.916,25.14-241.95-1.73-286.473-87.458
					c-32.677-62.925-5.174-139.781,23.234-205.649c66.111-153.287,74.061-292.498,0.886-433.176
					c-78.427-150.775-292.54-402.263-64.565-568.736c91.687-66.953,225.929-79.652,334.794-89.697
					c122.552-11.309,249.192-37.596,356.492-101.795c65.718-39.32,121.104-90.762,183.208-134.57
					c155.926-109.995,349.167-109.2,478.354,1.828c109.408,94.03,185.369,251.558,230.396,380.84
					c20.878,59.944,35.791,123.575,24.623,188.324s-52.343,131.173-119.388,165.751
					C2118.821,1502.032,2115.19,1503.78,2111.526,1505.432z"/>
			</g>
			<g>
				<defs>
					<rect id="SVGID_9_" x="0" y="0" width="1920" height="1080"/>
				</defs>
				<clipPath id="SVGID_10_">
					<use xlink:href="#SVGID_9_"  overflow="visible"/>
				</clipPath>
				<path clip-path="url(#SVGID_10_)" fill="#D7ECF7" d="M1794.975-335.91c-50.305,3.102-100.701,15.946-146.305,36.416
					c-130.551,58.605-335.271,182.156-312.572,351.807c16.454,122.987,254.064,288.108,349.079,352.188
					c83.534,56.339,193.161,83.979,286.604,46.287c110.31-44.496,170.851-169.47,174.925-288.347
					c4.357-127.187-34.307-348.853-137.656-435.292C1949.943-322.286,1872.569-340.692,1794.975-335.91z"/>
			</g>
			<g>
				<defs>
					<rect id="SVGID_11_" x="0" y="0" width="1920" height="1080"/>
				</defs>
				<clipPath id="SVGID_12_">
					<use xlink:href="#SVGID_11_"  overflow="visible"/>
				</clipPath>
				<path clip-path="url(#SVGID_12_)" fill="none" stroke="#FFFFFF" stroke-width="1.5" stroke-miterlimit="10" d="M2096.381,38.425
					c7.219,73.534-12.414,149.411-54.395,210.217c-41.979,60.805-105.974,106.057-177.294,125.369
					c-34.815,9.428-71.425,12.825-107.2,8.237c-61.356-7.865-117.634-38.68-167.051-75.887
					c-65.676-49.448-121.54-110.557-183.072-165.075c-61.531-54.518-131.258-103.615-211.446-121.729
					c-76.146-17.201-155.377-5.223-233.432-4.049C884.438,16.682,799.948,3.99,744.53-50.988"/>
			</g>
			<g>
				<defs>
					<rect id="SVGID_13_" x="0" y="0" width="1920" height="1080"/>
				</defs>
				<clipPath id="SVGID_14_">
					<use xlink:href="#SVGID_13_"  overflow="visible"/>
				</clipPath>
				<path clip-path="url(#SVGID_14_)" fill="none" stroke="#FFFFFF" stroke-width="1.5" stroke-miterlimit="10" d="
					M2212.366,654.943c7.9,99.832-77.265,189.387-174.032,215.186c-96.767,25.798-200.009,1.026-292.972-36.222
					c-92.963-37.247-181.214-87.036-277.594-114.245c-71.733-20.252-147.103-27.557-221.391-21.459
					c-66.354,5.446-136.675,24.493-178.705,76.122s-38.248,142.591,20.958,173.036c23.654,12.164,57.066,10.733,72.122-11.195
					c19.816-28.865-4.146-67.513-29.979-91.147c-77.53-70.935-182.714-110.814-287.786-109.115
					c-112.767,1.824-219.088,48.858-327.913,78.47c-134.499,36.599-279.699,46.363-412.293,3.37
					C-29.813,774.751-147.581,673.373-188.08,540"/>
			</g>
		</g>
	</g>
	<g>
		<g>
			<g>
				<defs>
					<rect id="SVGID_15_" x="0" y="0" width="1920" height="1080"/>
				</defs>
				<clipPath id="SVGID_16_">
					<use xlink:href="#SVGID_15_"  overflow="visible"/>
				</clipPath>
				<g clip-path="url(#SVGID_16_)">
					<path fill="#8EC5E4" d="M192.538,690.68c-52.696-43.28-94.407-99.829-120.194-162.957
						c-8.401-20.565-15.185-42.042-16.861-64.193c-1.676-22.151,2.037-45.139,13.432-64.209
						c4.772-7.987,11.346-15.556,20.238-18.297c8.608-2.654,18.083-0.319,26.02,3.944c16.672,8.959,27.929,25.812,34.308,43.631
						s8.479,36.829,11.076,55.576c9.116,65.774,25.507,131.983,61.43,187.832C212.917,679.425,202.923,685.711,192.538,690.68z"/>
					<path fill="#FFFFFF" d="M203.57,667.941c-24.708-37.631-40.887-80.827-46.978-125.431c-2.862-20.958-3.507-42.416,0.636-63.158
						c4.144-20.742,13.306-40.805,28.141-55.883c5.937-6.034,12.896-11.315,20.961-13.884c8.064-2.569,17.363-2.133,24.426,2.532
						c6.811,4.5,10.815,12.387,12.285,20.416c1.469,8.029,0.685,16.287-0.323,24.388c-4.165,33.471-12.058,66.396-16.177,99.871
						c-4.12,33.478-4.324,68.18,6.557,100.104C222.758,661.13,212.419,665.361,203.57,667.941z"/>
					<path fill="none" stroke="#152639" stroke-width="2.2521" stroke-linecap="round" stroke-miterlimit="10" d="M212.825,662.416
						c-27.312-77.216-26.814-163.942,1.38-240.84"/>
					<path fill="none" stroke="#152639" stroke-width="2.2521" stroke-linecap="round" stroke-miterlimit="10" d="M200.041,680.502
						c-58.159-80.256-94.889-175.891-105.402-274.443"/>
					<g>
						<path fill="#AEDDF0" d="M73.862,446.765c0.813,1.423,1.408,2.896,1.929,4.389c0.532,1.489,0.957,3.003,1.319,4.532
							c0.357,1.53,0.651,3.075,0.836,4.646c0.198,1.567,0.318,3.153,0.222,4.791c-0.815-1.423-1.413-2.896-1.933-4.389
							c-0.532-1.489-0.957-3.003-1.316-4.533c-0.354-1.53-0.648-3.075-0.833-4.646C73.888,449.987,73.767,448.401,73.862,446.765z"
							/>
					</g>
					<g>
						<path fill="#AEDDF0" d="M63.67,442.432c0.575,1.006,0.996,2.048,1.364,3.103c0.377,1.054,0.676,2.123,0.933,3.204
							c0.253,1.082,0.46,2.174,0.591,3.284c0.14,1.108,0.226,2.229,0.156,3.386c-0.576-1.005-0.999-2.047-1.366-3.102
							c-0.376-1.053-0.677-2.124-0.931-3.205c-0.25-1.082-0.458-2.174-0.588-3.285C63.689,444.709,63.604,443.589,63.67,442.432z"/>
					</g>
					<g>
						<path fill="#AEDDF0" d="M72.505,427.571c0.626,0.773,1.033,1.589,1.374,2.418c0.332,0.831,0.576,1.679,0.747,2.541
							s0.265,1.74,0.271,2.634c-0.001,0.896-0.069,1.807-0.36,2.759c-0.629-0.772-1.037-1.589-1.376-2.417
							c-0.331-0.831-0.576-1.679-0.744-2.542s-0.263-1.74-0.27-2.635C72.149,429.432,72.217,428.523,72.505,427.571z"/>
					</g>
				</g>
			</g>
			<g>
				<defs>
					<rect id="SVGID_17_" x="0" y="0" width="1920" height="1080"/>
				</defs>
				<clipPath id="SVGID_18_">
					<use xlink:href="#SVGID_17_"  overflow="visible"/>
				</clipPath>
				<g clip-path="url(#SVGID_18_)">
					<g>
						<path fill="#4477B4" d="M486.382,646.552c-11.907-44.688-23.918-90.437-20.249-136.537c0.591-7.421,1.677-15.07,5.607-21.394
							c3.932-6.321,11.396-10.989,18.697-9.53c10.099,2.018,14.72,13.69,16.585,23.818
							C516.227,552.893,500.659,603.747,486.382,646.552z"/>
						<path fill="#4477B4" d="M485.592,647.73c21.281-16.133,36.295-38.924,52.061-60.479
							c15.766-21.556,33.532-42.975,57.717-54.302c7.237-3.389,16.838-5.398,22.422,0.318c3.5,3.583,4.112,9.25,2.787,14.081
							c-1.324,4.831-4.287,9.023-7.242,13.066c-16.004,21.889-33.648,42.865-55.017,59.557
							C536.951,636.663,511.56,648.946,485.592,647.73z"/>
						<path fill="#4477B4" d="M540.118,519.188c-6.161-39.212-12.322-78.424-18.483-117.635c-0.777-4.945-1.193-10.899,2.708-14.036
							c3.25-2.614,8.282-1.836,11.564,0.736c3.283,2.571,5.173,6.504,6.711,10.381c7.597,19.138,9.283,40.213,7.791,60.749
							C548.918,479.92,544.357,500.094,540.118,519.188z"/>
						<path fill="#4477B4" d="M539.898,516.69c16.951-28.771,34.021-57.712,55.754-83.065c3.593-4.191,7.556-8.444,12.802-10.168
							c5.244-1.722,12.063,0.105,14.058,5.252c1.666,4.303-0.465,9.067-2.7,13.104C601.824,474.277,573.722,501.043,539.898,516.69z
							"/>
						<path fill="#4477B4" d="M570.932,390.467c-3.53-32.197-31.555-57.863-34.456-90.123c-0.364-4.049-0.013-8.773,3.266-11.176
							c2.667-1.954,6.515-1.598,9.368,0.072c2.854,1.669,4.9,4.416,6.693,7.194C572.888,322.909,573.235,356.441,570.932,390.467z"
							/>
						<path fill="#4477B4" d="M571.611,389.34c10.661-24.396,21.322-48.792,31.983-73.188c1.711-3.916,3.48-7.921,6.443-11
							s7.417-5.09,11.549-3.999c3.875,1.023,6.698,4.598,7.76,8.463s0.62,7.985-0.207,11.906
							c-3.122,14.813-11.545,28.089-21.863,39.164C596.957,371.761,584.742,380.867,571.611,389.34z"/>
						<path fill="none" stroke="#152639" stroke-width="2.7276" stroke-miterlimit="10" d="M473.537,671.571
							c53.871-96.725,88.911-203.891,102.59-313.757"/>
					</g>
					<g>
						<path fill="none" stroke="#152639" stroke-width="3.3191" stroke-linecap="round" stroke-miterlimit="10" d="M470.177,668.39
							c36.792-40.197,73.717-80.562,104.538-125.501c30.82-44.939,55.539-94.927,65.348-148.529"/>
						<path fill="#152639" d="M470.177,668.39c54.592-44.566,128.274-66.016,177.302-79.252
							C593.813,615.377,515.241,656.764,470.177,668.39z"/>
						<path fill="#152639" d="M468.789,664.43c-8.143-43.997-5.608-89.933,7.324-132.767
							C480.404,576.311,484.551,622.421,468.789,664.43z"/>
						<path fill="#152639" d="M523.384,609.69c13.527-43.551,18.049-89.877,13.196-135.222
							C519.927,515.45,515.151,561.178,523.384,609.69z"/>
						<path fill="#152639" d="M534.092,596.988c32.684-28.065,70.593-50.024,111.199-64.415
							C615.355,566.025,575.144,590.151,534.092,596.988z"/>
						<path fill="#152639" d="M573.013,546.206c10.354-34.007,9.642-71.288-2.001-104.877
							C561.933,475.659,563.119,512.635,573.013,546.206z"/>
						<path fill="#152639" d="M595.449,511.037c20.976-24.181,45.414-45.351,72.34-62.662
							C650.682,477.017,624.08,499.878,595.449,511.037z"/>
						<path fill="#152639" d="M615.816,468.575c5.964-27.556,2.045-57.145-10.887-82.197
							C603.291,415.725,607.436,445.385,615.816,468.575z"/>
						<path fill="#152639" d="M633.13,425.992c12.178-17.84,24.354-35.68,36.532-53.519
							C666.571,394.951,652.615,415.681,633.13,425.992z"/>
					</g>
				</g>
			</g>
			<g>
				<defs>
					<rect id="SVGID_19_" x="0" y="0" width="1920" height="1080"/>
				</defs>
				<clipPath id="SVGID_20_">
					<use xlink:href="#SVGID_19_"  overflow="visible"/>
				</clipPath>
				<g clip-path="url(#SVGID_20_)">
					<path fill="#DA8668" d="M584.771,1132.688c0,0,0.937,29.554-15.503,48.543c-16.44,18.989-53.459,20.716-53.459,20.716
						s-36.841,8.135-4.229-36.51c32.613-44.646,45.563-63.749,45.563-63.749S575.389,1106.534,584.771,1132.688z"/>
					<path fill="#DA8668" d="M590.205,1070.293c0,0,9.088,98.854,0,121.263c-9.089,22.407-13.807,18.869-13.807,18.869
						s-12.973,2.277-5.896-37.19s-43.893-52.848-37.278-82.718C539.838,1060.645,587.849,1038.498,590.205,1070.293z"/>
					<path fill="#DA8668" d="M583.014,806.348c0,0,13.454,110.664,8.072,245.817c-3.401,55.369,3.08,83.147-43.37,71.922
						c-46.45-11.227-76.79-273.328-43.618-329.055C537.27,739.307,579.188,766.061,583.014,806.348z"/>
					<g>
						<path fill="#35141F" d="M519.53,530.259c0,0-39.274-83.991-43.107-166.48c-3.833-82.49-133.703-116.318-175.834-58.893
							c0,0-12.28,99.434-49.849,143.593c-36.653,43.083-38.713,91.018-38.713,91.018s11.893,1.939,31.132,4.393l29.444-54.897
							l-6.107,57.667C339.778,554.729,466.987,562.844,519.53,530.259z"/>
						<g>
							<path fill="#8EC5E4" d="M388.229,1220.597c44.286-5.09,128.204-5.647,172.044-13.717
								c11.931-60.681-21.021-128.963-17.733-192.165c-33.845,4.875-68.291,5.552-103.091,1.597
								C419.507,1088.892,400.668,1161.774,388.229,1220.597z"/>
							<path fill="#8EC5E4" d="M405.106,1215.505c-12.716,4.336-26.438,4.357-39.875,4.336
								c-62.152-0.104-124.891-0.271-184.454-14.909c8.966-44.29,17.931-88.579,26.895-132.869
								c4.622-22.834,9.26-45.73,16.506-67.872c0.555-1.695,1.178-3.468,2.518-4.646c1.556-1.366,3.751-1.657,5.81-1.876
								c66.085-7.041,132.799-1.156,198.947,5.27c2.668,0.26,5.68,0.711,7.213,2.91c1.548,2.221,24.008,6.257,23.291,8.867
								C443.243,1082.902,427.653,1155.112,405.106,1215.505z"/>
						</g>
						<path fill="#6EACD7" d="M203.801,1091.19c0,0,157.129,98.615,346.81,0H203.801z"/>
						<path fill="#8EC5E4" d="M443.38,550.738c20.745,17.406,43.527,34.108,66.62,52.385c25.16,19.913,41.175,49.219,44.377,81.145
							c13.09,130.451,5.271,330.689,5.965,402.566c-123.349,32.455-255.281,30.25-378.708-0.903
							c17.637-93.729,29.802-149.153,32.021-258.728c-3.511-48.143-18.683-177.321,8.027-217.528s67.049-71.184,111.424-83.101
							c22.021-7.779,46.212-0.673,68.459,6.433c7.433,2.374,14.979,4.803,21.437,9.179
							C429.461,546.563,434.795,553.238,443.38,550.738z"/>
						<g>
							<path fill="#1A2942" d="M137.425,852.281l219.206-87.131c4.756-1.89,10.115,0.67,11.632,5.56l49.701,160.104
								c1.429,4.604-1.12,9.5-5.712,10.969l-211.547,67.675c-4.368,1.397-9.077-0.802-10.81-5.049L132.537,863.76
								C130.693,859.24,132.889,854.084,137.425,852.281z"/>
							<polygon fill="#7295B8" points="375.852,829.332 408.959,821.584 427.592,883.439 394.08,890.616 							"/>
							<path fill="#7295B8" d="M410.531,839.065c5.952-1.674,13.12-1.443,17.364,3.052c1.896,2.008,2.991,4.656,3.593,7.351
								c1.103,4.931,0.606,10.299-1.876,14.7c-2.481,4.399-7.054,7.691-12.087,8.132L410.531,839.065z"/>
						</g>
						<path fill="#8EC5E4" d="M614.799,826.761c0,0-113.549-3.059-139.24,19.259c-32.966-16.758-80.192-89.975-47.966-145.093
							c11.298-19.324-5.155-163.387,16.638-158.272c8.918,2.093,85.25,50.685,91.938,56.946
							c29.905,28.009,57.264,111.881,67.023,151.676C608.094,771.271,614.799,826.761,614.799,826.761z"/>
						<path fill="#35141F" d="M412.873,231.604c26.227,8.302,74.347,19.143,91.769,40.432s25.585,51.403,16.017,77.194
							c-32.076-33.64-68.379-63.244-107.785-87.894C423.103,252.114,412.243,247.264,412.873,231.604z"/>
						<path fill="#DA8668" d="M440.735,461.352c-0.681,35.991-1.361,71.981-1.961,107.184c-18.987,11.805-44.467,8.073-63.661-3.395
							c-19.192-11.467-33.472-29.424-46.063-47.094c15.652-40.68,26.834-83.076,34.874-126.768
							c19.461-0.955,39.197,5.865,53.917,18.631C432.562,422.677,441.115,441.206,440.735,461.352z"/>
						<path fill="none" stroke="#152639" stroke-width="2.3365" stroke-linecap="round" stroke-miterlimit="10" d="M301.466,365.399
							c24.695-5.849,46.463-23.034,57.884-45.698c11.421-22.663,12.283-50.384,3.989-68.354c-4.185-4.36-11.187-5.019-16.881-2.999
							c-5.695,2.019-10.314,6.248-14.434,10.669C305.593,287.385,293.718,328.657,301.466,365.399z"/>
						<path fill="#35141F" d="M298.883,368.511c-9.822-30.26-4.854-64.948,13.065-91.232c17.922-26.286,48.396-43.584,80.151-45.496
							s64.086,11.605,85.031,35.55c13.043,14.912,21.88,34.604,19.609,54.283c-1.906,16.531-11.44,31.454-23.6,42.814
							s-26.863,19.582-41.593,27.323c-21.914,11.515-45.242,22.468-69.997,22.428C336.797,414.142,309.215,400.34,298.883,368.511z"
							/>
						<path d="M440.748,464.034c-1.092,8.416-7.955,20.677-14.184,21.461c-8.581,1.082-19.976-6.311-25.773-12.728
							c-15.194-16.815-23.354-29.703-30.826-51.098C392.465,442.459,417.128,443.022,440.748,464.034z"/>
						<path fill="#DA8668" d="M317.168,352.739c-8.011-39.409,15.706-82.062,52.251-98.842s82.385-8.228,112.622,18.285
							c30.237,26.512,44.704,68.85,40.341,108.827c-2.689,24.634-12.716,49.369-31.848,65.119
							c-28.084,23.119-70.528,21.946-102.937,5.426C350.121,432.448,325.53,393.879,317.168,352.739z"/>
						<path fill="#DA8668" d="M335.741,362.672c-6.761-7.172-15.025-13.34-24.618-15.599c-9.594-2.259-20.641,0.023-27.146,7.427
							c-5.492,6.253-7.052,15.125-6.525,23.431c0.675,10.653,4.571,21.252,11.803,29.104c7.23,7.853,17.928,12.692,28.572,11.895
							c10.644-0.799,20.867-7.636,24.769-17.571c2.714-6.912,2.336-14.742,0.286-21.878
							C340.831,372.342,338.093,365.166,335.741,362.672z"/>
						<path fill="none" stroke="#07092B" stroke-width="2.3365" stroke-linecap="round" stroke-miterlimit="10" d="M404.395,316.815
							c-4.419-9.021-14.254-15.112-24.299-15.049c-10.045,0.063-19.803,6.276-24.108,15.354l-11.461-2.989"/>
						<path fill="none" stroke="#07092B" stroke-width="2.3365" stroke-linecap="round" stroke-miterlimit="10" d="M445.519,305.803
							c3.461-8.048,11.329-14.029,20.009-15.213c8.68-1.183,17.861,2.477,23.35,9.305l11.23-5.771"/>
						<path fill="#07092B" d="M466.554,305.057c0.528,0.742,0.996,1.612,1.387,2.62c4.134,10.645-10.406,20.279-17.211,9.995
							C443.484,306.718,459.858,295.636,466.554,305.057z"/>
						<path fill="#07092B" d="M380.553,311.052c7.26,4.718,9.877,19.153-3.715,18.863c-4.128-0.088-8.134-2.729-9.698-6.55
							c-1.563-3.82-0.497-8.604,2.643-11.287C373.621,308.802,377.498,309.067,380.553,311.052z"/>
						<path fill="none" stroke="#B95237" stroke-width="2.3365" stroke-miterlimit="10" d="M461.811,384.521
							c-6.753,3.618-14.504,5.35-22.154,4.949"/>
						<path fill="#DA8668" d="M343.852,500.726c-16.699,19.132-37.168,34.959-60.122,46.119
							c16.507,23.561,33.371,47.5,56.125,65.103c22.753,17.603,52.719,28.218,80.626,21.235
							c27.907-6.983,50.997-35.252,48.417-60.123c-15.2-19.106-30.399-38.213-45.435-53.438
							C401.207,502.395,371.34,495.399,343.852,500.726z"/>
						<g>
							<path fill="#DA8668" d="M210.446,833.379c16.884,26.143,53.253,127.879,67.905,155.78
								c0.411,16.224-8.99,12.725-24.826,16.271c-15.836,3.546-20.594,14.842-28.228,0.473
								c-10.047-19.926-34.354-59.447-45.911-78.084c-73.771-75.786-57.201-108.592-47.501-116.069
								C141.583,804.271,193.878,830.443,210.446,833.379z"/>
							<path fill="#DA8668" d="M248.417,987.916c4.614-7.894,30.176-13.711,38.823-10.739c8.648,2.972,24.59,7.987,30.427,15.025
								c5.449,6.571,10.484,13.486,15.066,20.689c2.593,4.077,5.129,8.595,4.769,13.413c-0.364,4.854-3.744,9.125-7.959,11.563
								c-4.215,2.438-9.17,3.274-14.356,3.31c-14.364-11.671-28.926-23.552-39.504-38.737
								C271.54,996.489,244.706,994.266,248.417,987.916z"/>
							<path fill="#DA8668" d="M309.913,1025.566c1.388,7.939,6.55,14.595,10.888,21.389c4.338,6.793,8.093,14.84,6.212,22.678
								c-1.144,4.765-4.845,9.211-9.705,9.836c-4.538,0.584-8.822-2.152-12.251-5.182c-6.777-5.989-12.068-13.647-15.271-22.104
								c-1.767-4.662-2.912-9.659-2.438-14.621c0.477-4.962,2.73-9.896,6.736-12.862
								C298.092,1021.733,303.939,1021.113,309.913,1025.566z"/>
							<path fill="#DA8668" d="M303.255,1064.477c-10.438,5.309-21.175,10.437-32.719,12.397c-11.544,1.963-24.159,0.409-33.51-6.64
								c-14.749-11.118-17.438-31.846-18.616-50.278c-0.372-5.818-0.632-12.015,2.243-17.088c3.538-6.242,10.83-9.143,17.574-11.595
								c9.452-3.437,19.685-6.913,29.355-4.157c11.531,3.286,18.826,14.39,24.554,24.923c4.733,8.705,9.161,17.722,11.214,27.414
								C305.404,1049.148,304.897,1059.685,303.255,1064.477z"/>
						</g>
						<path fill="#8EC5E4" d="M311.457,530.259l109.023,102.924l19.667-95.336c0,0,51.542,45.362,65.729,53.969
							c35.25,91.122-104.401,127.453-104.401,127.453l-131.588-138.88v-22.193L311.457,530.259z"/>
						<g>
							<g>
								<defs>
									<path id="SVGID_21_" d="M316.901,352.734c-8.03-39.511,15.746-82.275,52.388-99.1s82.601-8.249,112.916,18.333
										c30.316,26.582,44.82,69.029,40.445,109.11c-2.696,24.698-12.75,49.498-31.931,65.289
										c-28.157,23.181-70.713,22.004-103.206,5.44C349.94,432.652,325.285,393.981,316.901,352.734z"/>
								</defs>
								<defs>
									<path id="SVGID_22_" d="M316.901,352.734c-8.03-39.511,15.746-82.275,52.388-99.1s82.601-8.249,112.916,18.333
										c30.316,26.582,44.82,69.029,40.445,109.11c-2.696,24.698-12.75,49.498-31.931,65.289
										c-28.157,23.181-70.713,22.004-103.206,5.44C349.94,432.652,325.285,393.981,316.901,352.734z"/>
								</defs>
								<clipPath id="SVGID_23_">
									<use xlink:href="#SVGID_21_"  overflow="visible"/>
								</clipPath>
								<clipPath id="SVGID_24_" clip-path="url(#SVGID_23_)">
									<use xlink:href="#SVGID_22_"  overflow="visible"/>
								</clipPath>
								<path clip-path="url(#SVGID_24_)" fill="#CE5555" d="M514.592,306.326c-8.238-2.921-17.385-3.895-25.743-1.338
									s-15.753,8.997-18.162,17.399c-2.199,7.668-0.141,15.969,3.272,23.18c2.875,6.076,6.787,11.778,12.084,15.918
									c5.298,4.142,12.084,6.608,18.77,5.901c13.161-1.393,22.466-14.742,23.787-27.911
									C529.923,326.307,526.58,310.578,514.592,306.326z"/>
								<path clip-path="url(#SVGID_24_)" fill="#CE5555" d="M348.631,325.613c10.747,0.504,21.714,3.423,30.003,10.282
									c8.288,6.86,13.372,18.152,10.928,28.63c-1.937,8.307-8.341,15.161-16.042,18.828s-16.554,4.396-25.02,3.358
									c-8.553-1.051-17.298-4.13-22.86-10.71c-6.601-7.811-7.426-19.527-3.425-28.938S333.642,324.911,348.631,325.613z"/>
							</g>
							<g>
								<path fill="#8EC5E4" d="M238.173,832.832c0,0-4.034-14.142-6.378-22.305c33.573-42.143,91.926-64.802,95.716-118.549
									c0.958-13.583,4.813-70.042,0-82.779c-4.813-12.736-30.489-59.396-43.78-62.354c-22.374-4.979-89.539,48.872-104.347,66.367
									C135,665.649,114.245,733.61,79.367,790.969c-9.808,27.778,20.989,106.765,32.687,125.722
									C112.053,916.69,183,835.185,238.173,832.832z"/>
								<path fill="none" stroke="#FFFFFF" stroke-width="2.3365" stroke-linejoin="round" stroke-miterlimit="10" d="
									M227.678,795.254c-16.065-21.158-39.757-43.16-59.404-37.116"/>
								<path fill="none" stroke="#FFFFFF" stroke-width="2.3365" stroke-linejoin="round" stroke-miterlimit="10" d="
									M199.634,752.094c12.591,11.893,22.292,26.822,28.044,43.16"/>
							</g>
							<polyline fill="none" stroke="#FFFFFF" stroke-width="2.3365" stroke-linejoin="round" stroke-miterlimit="10" points="
								297.417,539.879 416.467,654.494 430.925,654.494 455.059,555.775 							"/>
							<path fill="#35141F" d="M344.526,273.19c0,0-11.401,112.084,18.104,138.824c0,0-54.864-13.015-59.015-74.05
								c-4.148-61.036,40.91-76.712,40.91-76.712V273.19z"/>
							<path fill="#35141F" d="M472.25,266.606l10.811,20.638l0.155-0.011l20.883-1.465c0,0-22.229-79.659-107.463-63.246
								s-60.229,64.92-60.229,64.92l25.183,2.929l1.931,0.225l6.444-23.086l4.68,24.38l41.962,4.25l1.938-28.233l6.944,27.419
								l29.44-4.909l12.896-1.832L472.25,266.606z"/>
							<polygon fill="#B95237" points="435.301,317.12 459.382,352.13 429.078,360.147 							"/>
							<path fill="none" stroke="#07092B" stroke-width="2.3365" stroke-linecap="round" stroke-miterlimit="10" d="
								M422.224,377.649c0,0,26.307,9.685,46.59-5.446"/>
							
								<line fill="none" stroke="#07092B" stroke-width="2.3365" stroke-linecap="round" stroke-miterlimit="10" x1="362.63" y1="326.239" x2="350.661" y2="332.563"/>
							
								<line fill="none" stroke="#07092B" stroke-width="2.3365" stroke-linecap="round" stroke-miterlimit="10" x1="368.453" y1="330.892" x2="361.285" y2="342.375"/>
							
								<line fill="none" stroke="#07092B" stroke-width="2.3365" stroke-linecap="round" stroke-miterlimit="10" x1="472.813" y1="314.923" x2="487.799" y2="322.061"/>
							
								<line fill="none" stroke="#07092B" stroke-width="2.3365" stroke-linecap="round" stroke-miterlimit="10" x1="480.306" y1="306.327" x2="491.127" y2="306.327"/>
							<path fill="none" stroke="#FFFFFF" stroke-width="2.3365" stroke-linejoin="round" stroke-miterlimit="10" d="
								M533.224,671.041c0,0,28.094,35.238,28.809,119.109c0.855,100.466-1.69,296.684-1.69,296.684"/>
						</g>
					</g>
					<g id="OBJECTS" display="none">
						<defs>
							<rect id="SVGID_25_" x="0" y="0" width="1920" height="1080"/>
						</defs>
						<clipPath id="SVGID_26_" display="inline">
							<use xlink:href="#SVGID_25_"  overflow="visible"/>
						</clipPath>
						<g display="inline" clip-path="url(#SVGID_26_)">
							<path fill="#DA4949" d="M1508.677,354.019c-24.293-20.802-57.748-49.292-74.783-76.359
								c-5.399-8.58-10.567-18.204-9.444-28.279c1.426-12.8,13.422-22.771,26.182-24.522c12.759-1.752,27.695,4.512,37.89,12.384
								s22.952,23.427,22.952,23.427s21.689-23.015,34.875-31.073c13.186-8.06,31.766-9.48,43.193,0.922
								c8.462,7.703,11.207,20.286,9.302,31.568c-1.906,11.283-7.843,21.481-14.535,30.764
								C1564.317,320.568,1536.816,336.971,1508.677,354.019z"/>
							<g>
								<g>
									<g>
										<defs>
											<path id="SVGID_27_" d="M1458.658,312.444c12.082-7.174,20.038-13.915,29.95-23.874c2.849-2.861,5.683-5.979,6.802-9.857
												c1.143-3.961,0.242-8.475-2.403-11.635c-2.647-3.161-6.985-4.842-11.058-4.199c-3.9,0.616-7.197,3.126-10.311,5.555
												c-9.748,7.604-19.497,15.208-29.245,22.811L1458.658,312.444z"/>
										</defs>
										<defs>
											<path id="SVGID_28_" d="M1458.658,312.444c12.082-7.174,20.038-13.915,29.95-23.874c2.849-2.861,5.683-5.979,6.802-9.857
												c1.143-3.961,0.242-8.475-2.403-11.635c-2.647-3.161-6.985-4.842-11.058-4.199c-3.9,0.616-7.197,3.126-10.311,5.555
												c-9.748,7.604-19.497,15.208-29.245,22.811L1458.658,312.444z"/>
										</defs>
										<clipPath id="SVGID_29_">
											<use xlink:href="#SVGID_27_"  overflow="visible"/>
										</clipPath>
										<clipPath id="SVGID_30_" clip-path="url(#SVGID_29_)">
											<use xlink:href="#SVGID_28_"  overflow="visible"/>
										</clipPath>
										<path clip-path="url(#SVGID_30_)" fill="#F7F3E1" d="M1455.443,314.407c12.081-7.175,23.254-15.878,33.166-25.836
											c2.849-2.861,5.683-5.979,6.802-9.857c1.143-3.961,0.242-8.475-2.403-11.635c-2.647-3.161-6.985-4.842-11.058-4.199
											c-3.9,0.616-7.197,3.126-10.311,5.555c-9.748,7.604-19.497,15.208-29.245,22.811L1455.443,314.407z"/>
										<path clip-path="url(#SVGID_30_)" fill="#EBE3C6" d="M1463.164,267.116c9.892,11.356,18.658,23.692,26.131,36.769
											c-6.438,4.776-13.42,8.817-20.77,12.018c-9.225-10.986-18.448-21.972-27.673-32.958
											C1447.623,276.625,1455.156,271.127,1463.164,267.116z"/>
									</g>
									<g>
										<g>
											<path fill="#E4C8A2" d="M1471.912,288.11c2.619,0.009,2.613,3.993,0,4.009
												C1469.293,292.111,1469.299,288.127,1471.912,288.11z"/>
											<path fill="#E4C8A2" d="M1464.598,277.869c2.619,0.009,2.613,3.993,0,4.009
												C1461.978,281.869,1461.984,277.885,1464.598,277.869z"/>
											<path fill="#E4C8A2" d="M1463.72,288.11c2.618,0.009,2.612,3.993,0,4.009
												C1461.1,292.111,1461.106,288.127,1463.72,288.11z"/>
											<path fill="#E4C8A2" d="M1463.427,297.474c2.62,0.009,2.612,3.993,0,4.009
												C1460.808,301.475,1460.813,297.491,1463.427,297.474z"/>
											<path fill="#E4C8A2" d="M1456.697,287.232c2.619,0.009,2.612,3.993-0.001,4.01
												C1454.076,291.233,1454.082,287.249,1456.697,287.232z"/>
										</g>
									</g>
								</g>
								<path fill="#DF6565" d="M1574.963,231.209c0,0,10.81,0.269,15.33,11.318L1574.963,231.209z"/>
							</g>
							<g>
								<defs>
									<rect id="SVGID_31_" x="0" y="0" width="1920" height="1080"/>
								</defs>
								<clipPath id="SVGID_32_">
									<use xlink:href="#SVGID_31_"  overflow="visible"/>
								</clipPath>
								<g clip-path="url(#SVGID_32_)">
									<path fill="#152639" stroke="#152639" stroke-width="3.2753" stroke-miterlimit="10" d="M1277.735,199.98
										c-7.113-1.809-14.335-2.348-21.217-1.583c-2.548,0.283-5.451,1.122-5.893,3.667c-0.436,2.508,2.041,5.271,4.623,6.049
										s5.125,0.101,7.438-0.718C1267.991,205.516,1272.91,202.894,1277.735,199.98z"/>
									<path fill="#152639" stroke="#152639" stroke-width="2.7411" stroke-miterlimit="10" d="M1220.946,213.846
										c2.452-2.786,4.938-5.591,7.996-7.737c3.057-2.147,6.773-3.612,10.661-3.396c2.179,0.121,4.688,1.063,5.432,3.11
										c0.47,1.291,0.078,2.717-0.722,3.756c-0.801,1.039-1.961,1.748-3.146,2.349
										C1235.463,214.811,1228.567,215.571,1220.946,213.846z"/>
									<path fill="none" stroke="#152639" stroke-width="2.7411" stroke-miterlimit="10" d="M1222.067,213.597
										c-46.515,31.379-23.313,88.646,2.149,124.173c13.524,27.82,43.588,40.374,77.015,29.152
										c30.085-11.505,52.902-42.286,43.607-74.288c-12.227-35.287-14.365-102.267-67.104-92.653"/>
									<path fill="none" stroke="#152639" stroke-width="2.7411" stroke-miterlimit="10" d="M1294.857,368.769
										c8.854,29.215,17.584,61.419,5.406,89.413c-8.146,18.727-24.695,32.797-32.931,51.485
										c-10.133,22.997-5.517,51.745,11.308,70.414c16.824,18.67,44.938,26.242,68.862,18.551
										c23.926-7.693,42.356-30.234,45.146-55.21c0.75-6.717,0.38-13.825-2.895-19.736c-3.273-5.911-10.01-10.262-16.672-9.128
										c-7.28,1.238-12.406,8.949-11.951,16.32c0.455,7.372,5.623,13.921,12.149,17.379s14.212,4.169,21.566,3.485
										c16.925-1.57,32.353-9.976,47.155-18.328c14.804-8.353,30.031-17.001,46.893-19.146
										c16.861-2.146,35.982,3.884,44.157,18.787"/>
									<path fill="#152639" d="M1527.652,532.448c52.122-39.556,105.456,46.906,51.44,76.6
										C1538.412,631.408,1484.772,574.066,1527.652,532.448z"/>
									<path fill="#FFFFFF" d="M1536.246,543.053c36.791-27.922,74.438,33.108,36.312,54.067
										C1543.843,612.906,1505.979,572.43,1536.246,543.053z"/>
									<path fill="#6694C0" d="M1542.61,550.904c25.439-19.308,51.475,22.896,25.108,37.389
										C1547.862,599.207,1521.68,571.219,1542.61,550.904z"/>
									<g>
										<g>
											<path fill="#6694C0" d="M1277.515,375.854c8.168,0,16.68-1.394,25.278-4.281l0.189-0.067
												c16.012-6.123,30.213-17.574,38.966-31.418c9.624-15.224,12.324-32.563,7.601-48.821
												c-0.754-2.603-3.476-4.104-6.078-3.344c-2.604,0.757-4.1,3.479-3.344,6.08c8.951,30.825-14.197,58.179-40.555,68.302
												c-30.299,10.128-58.137-0.336-70.944-26.68c-1.185-2.437-4.118-3.451-6.558-2.267c-2.438,1.185-3.452,4.121-2.268,6.558
												C1231.002,362.949,1252.663,375.854,1277.515,375.854z"/>
										</g>
									</g>
								</g>
							</g>
							<g>
								<defs>
									<rect id="SVGID_33_" x="0" y="0" width="1920" height="1080"/>
								</defs>
								<clipPath id="SVGID_34_">
									<use xlink:href="#SVGID_33_"  overflow="visible"/>
								</clipPath>
								<g clip-path="url(#SVGID_34_)">
									<path fill="#597790" d="M1481.502,382.418l4.662,24.007l-10.511,1.761C1475.654,408.185,1470.234,391.438,1481.502,382.418
										z"/>
									<path fill="#1A2942" d="M1531.332,411.242c4.281,5.738,7.739,12.09,10.195,17.622
										c-28.004,86.819-52.859,174.653-74.639,263.761c-5.676,3.403-11.352,6.809-17.027,10.213
										c0,0-167.625-35.262-167.852-35.518c-4.193-4.055-8.387-8.107-12.58-12.162c0,0,81.115-259.383,81.959-260.504
										c3.121-3.355,6.242-6.713,9.363-10.068L1531.332,411.242z"/>
									<polygon fill="#F9F5E3" points="1523.651,424.666 1360.688,396.8 1287.213,649.107 1451.24,684.757 									"/>
									<path fill="#7397BA" d="M1481.502,382.418c-4.526,6.737-7.022,17.735-5.849,25.768c0,0-66.198-8.9-67.12-9.783
										c-2.134-9.323,1.269-19.7,8.506-25.951L1481.502,382.418z"/>
									<path fill="#7397BA" d="M1459.609,381.05c-2.369-5.979-7.219-11.218-13.44-12.843c-6.221-1.625-13.647,1.1-16.37,6.925
										L1459.609,381.05z"/>
									<path fill="none" stroke="#7397BA" stroke-width="2.6484" stroke-miterlimit="10" d="M1482.807,451.297
										c-3.678,2.426-8.521,2.984-12.656,1.462c-4.134-1.523-7.457-5.093-8.681-9.325c1.079,1.642-1.319,3.665-3.248,3.292
										c-1.931-0.373-3.374-1.939-5.108-2.861c-3.428-1.821-8.122-0.734-10.398,2.409c-1.875-5.913-9.885-8.862-15.146-5.579
										c0,1.028,0.932,1.965,1.959,1.974c-3.813-6.75-12.643-10.185-20.014-7.788c-3.391-4.094-9.225-4.957-14.506-5.536
										c-6.093-0.668-12.186-1.336-18.277-2.004"/>
									<path fill="none" stroke="#7397BA" stroke-width="2.6484" stroke-miterlimit="10" d="M1470.137,470.939
										c-4.1,1.361-8.788,2.677-12.547,0.55c-1.147-0.648-2.151-1.6-3.422-1.952c-2.367-0.655-4.691,0.931-6.991,1.792
										c-5.183,1.941-11.581-0.188-14.564-4.849c-0.896-1.401-1.534-3.018-2.792-4.107c-2.249-1.945-6.217-1.278-7.706,1.295
										c-0.323,0.562-0.53,1.291-0.182,1.837c0.349,0.545,1.419,0.47,1.459-0.177c-4.521-4.431-11.953-5.546-17.575-2.638
										c-3.773-3.468-8.432-7.196-13.438-6.098c-2.812,0.616-5.348,2.739-8.203,2.39c-2.854-0.35-6.335-2.885-8.034-0.564"/>
									<path fill="none" stroke="#7397BA" stroke-width="2.6484" stroke-miterlimit="10" d="M1364.346,620.632
										c-3.243-1.497-6.376-3.233-9.363-5.191c-0.752-0.493-1.557-1.089-1.729-1.97c-0.174-0.882,0.793-1.918,1.562-1.451
										c-1.592,3.221-5.903,4.28-9.363,3.313c-3.459-0.969-6.258-3.449-8.925-5.856c-0.773,1.269-0.105,3.001-0.732,4.35
										c-1.014,2.183-4.373,1.669-6.239,0.153c-1.867-1.517-3.373-3.738-5.728-4.233c-1.255-0.265-2.549,0.021-3.827,0.118
										c-3.993,0.303-8.089-1.377-10.721-4.396"/>
									<path fill="none" stroke="#7397BA" stroke-width="2.6484" stroke-miterlimit="10" d="M1360.541,630.614
										c-4.52-0.829-9.291-1.777-12.705-4.854c-0.523-0.474-1.034-1.006-1.704-1.229c-2.78-0.926-4.414,3.806-7.329,4.106
										c-3.339,0.346-5.085-5.195-8.416-4.78c-1.139,0.143-2.064,0.991-3.168,1.308c-1.923,0.553-4.163-0.908-4.434-2.892
										c-2.603,0.221-5.248-0.109-7.716-0.961"/>
									<path fill="none" stroke="#7397BA" stroke-width="2.6484" stroke-miterlimit="10" d="M1348.315,639.298
										c-2.813-0.98-5.624-1.961-8.438-2.942c-0.847-0.295-1.737-0.595-2.621-0.445c-1.715,0.289-2.922,2.176-4.659,2.186
										c-2.743,0.016-3.845-4.461-6.587-4.435c-0.81,0.009-1.543,0.436-2.286,0.754c-2.228,0.955-4.84,0.968-7.073,0.03"/>
									<polygon fill="#EDE5C8" points="1471.545,497.74 1443.17,607.984 1325.466,586.205 1358.181,477.108 									"/>
								</g>
							</g>
							<g>
								<defs>
									<rect id="SVGID_35_" x="0" y="0" width="1920" height="1080"/>
								</defs>
								<clipPath id="SVGID_36_">
									<use xlink:href="#SVGID_35_"  overflow="visible"/>
								</clipPath>
								<polygon clip-path="url(#SVGID_36_)" fill="#FFFFFF" points="1371.282,343.371 1359.188,339.829 1362.73,351.925 
									1359.188,364.019 1371.282,360.477 1383.377,364.019 1379.836,351.925 1383.377,339.829 								"/>
							</g>
							<g>
								<defs>
									<rect id="SVGID_37_" x="0" y="0" width="1920" height="1080"/>
								</defs>
								<clipPath id="SVGID_38_">
									<use xlink:href="#SVGID_37_"  overflow="visible"/>
								</clipPath>
								<g clip-path="url(#SVGID_38_)">
									
										<rect x="1380.161" y="300.57" transform="matrix(0.9642 0.2652 -0.2652 0.9642 131.9312 -355.1563)" fill="#FFFFFF" width="1.889" height="20.783"/>
									
										<rect x="1380.168" y="300.628" transform="matrix(0.2649 -0.9643 0.9643 0.2649 715.3887 1560.4247)" fill="#FFFFFF" width="1.888" height="20.781"/>
								</g>
							</g>
							<g>
								<defs>
									<rect id="SVGID_39_" x="0" y="0" width="1920" height="1080"/>
								</defs>
								<clipPath id="SVGID_40_">
									<use xlink:href="#SVGID_39_"  overflow="visible"/>
								</clipPath>
								<polygon clip-path="url(#SVGID_40_)" fill="#FFFFFF" points="1326.639,381.279 1333.096,379.984 1331.801,373.528 
									1333.994,373.089 1335.289,379.545 1341.746,378.25 1342.186,380.444 1335.729,381.739 1337.024,388.195 1334.829,388.635 
									1333.534,382.179 1327.078,383.473 								"/>
							</g>
						</g>
					</g>
					<g id="TEXTS">
					</g>
				</g>
			</g>
		</g>
	</g>
</g>
<g id="Livello_2" display="none">
	<rect x="706.5" y="142.5" display="inline" fill="#FFFFFF" width="996" height="856"/>
	<text transform="matrix(1 0 0 1 850.5002 160.4998)" display="inline" font-family="'MyriadPro-Regular'" font-size="72">APPUNTAMENTI OGGI</text>
</g>
<g id="Livello_3" display="none">
	<rect x="814.5" y="78.5" display="inline" opacity="0.5" fill="#8B8C91" width="742" height="96"/>
</g>
<g id="Livello_4" display="none">
	<rect x="814.5" y="296.5" display="inline" fill="#AA0404" width="818" height="144"/>
	<rect x="814.5" y="765.5" display="inline" fill="#8B8C91" width="818" height="144"/>
	<rect x="814.5" y="540" display="inline" fill="#06FC29" width="818" height="144"/>
</g>
</svg>
